<svg width="22" height="22" viewBox="0 0 22 22" fill="none" xmlns="http://www.w3.org/2000/svg">
<path d="M15.6666 17V15.6667C15.6666 14.9594 15.4208 14.2811 14.9832 13.781C14.5456 13.281 13.9522 13 13.3333 13H8.66665C8.04781 13 7.45432 13.281 7.01673 13.781C6.57915 14.2811 6.33331 14.9594 6.33331 15.6667V17" stroke="black" stroke-width="2" stroke-linecap="round" stroke-linejoin="round"/>
<path d="M11 10.3333C12.2887 10.3333 13.3334 9.13943 13.3334 7.66667C13.3334 6.19391 12.2887 5 11 5C9.71136 5 8.66669 6.19391 8.66669 7.66667C8.66669 9.13943 9.71136 10.3333 11 10.3333Z" stroke="black" stroke-width="2" stroke-linecap="round" stroke-linejoin="round"/>
<path d="M10.9048 21C16.3751 21 20.8097 16.5228 20.8097 11C20.8097 5.47715 16.3751 1 10.9048 1C5.43455 1 1 5.47715 1 11C1 16.5228 5.43455 21 10.9048 21Z" stroke="black" stroke-width="2" stroke-linecap="round" stroke-linejoin="round"/>
</svg>