<svg width="30" height="22" viewBox="0 0 30 22" fill="none" xmlns="http://www.w3.org/2000/svg">
<path d="M27.3334 19V17.6667C27.3334 16.9594 27.0524 16.2811 26.5523 15.781C26.0522 15.281 25.3739 15 24.6667 15H19.3334C18.6261 15 17.9478 15.281 17.4477 15.781C16.9476 16.2811 16.6667 16.9594 16.6667 17.6667V19" stroke="black" stroke-width="2" stroke-linecap="round" stroke-linejoin="round"/>
<path d="M22 12.3333C23.4727 12.3333 24.6666 11.1394 24.6666 9.66667C24.6666 8.19391 23.4727 7 22 7C20.5272 7 19.3333 8.19391 19.3333 9.66667C19.3333 11.1394 20.5272 12.3333 22 12.3333Z" stroke="black" stroke-width="2" stroke-linecap="round" stroke-linejoin="round"/>
<path d="M11.3815 21C16.8518 21 21.2864 16.5228 21.2864 11C21.2864 5.47715 16.8518 1 11.3815 1C5.91123 1 1.47668 5.47715 1.47668 11C1.47668 16.5228 5.91123 21 11.3815 21Z" stroke="black" stroke-width="2" stroke-linecap="round" stroke-linejoin="round"/>
</svg>