<svg width="523" height="272" viewBox="0 0 523 272" fill="none" xmlns="http://www.w3.org/2000/svg">
<g clip-path="url(#clip0)">
<path d="M66.3589 268.091L65.4614 267.86C75.4687 217.062 100.618 170.933 136.276 137.97C163.235 113.087 195.299 96.446 229.448 89.6123C263.597 82.7787 298.707 85.9778 331.474 98.9083C364.241 111.839 393.585 134.075 416.745 163.524C439.904 192.973 456.116 228.665 463.855 267.24L462.958 267.473C441.774 161.305 360.256 87.1565 264.72 87.1565C170.436 87.1565 87.0128 163.25 66.3589 268.091Z" fill="#3F3D56"/>
<path d="M413.816 143.975C427.614 143.975 438.8 131.207 438.8 115.458C438.8 99.7077 427.614 86.9399 413.816 86.9399C400.017 86.9399 388.832 99.7077 388.832 115.458C388.832 131.207 400.017 143.975 413.816 143.975Z" fill="#FF6584"/>
<path d="M404.325 229.472H403.405V270.95H404.325V229.472Z" fill="#3F3D56"/>
<path d="M412.815 234.758C412.873 249.262 403.933 261.067 403.933 261.067C403.933 261.067 394.899 249.356 394.84 234.852C394.782 220.348 403.721 208.543 403.721 208.543C403.721 208.543 412.756 220.254 412.815 234.758Z" fill="#00BFA6"/>
<path opacity="0.1" d="M412.815 234.758C412.873 249.262 403.933 261.067 403.933 261.067C403.933 261.067 394.899 249.356 394.84 234.852C394.782 220.348 403.721 208.543 403.721 208.543C403.721 208.543 412.756 220.254 412.815 234.758Z" fill="black"/>
<path opacity="0.4" d="M230.461 147.006C238.399 147.006 244.835 139.66 244.835 130.599C244.835 121.538 238.399 114.193 230.461 114.193C222.523 114.193 216.088 121.538 216.088 130.599C216.088 139.66 222.523 147.006 230.461 147.006Z" fill="#00BFA6"/>
<path opacity="0.4" d="M203.86 149.944C209.428 149.944 213.942 144.791 213.942 138.435C213.942 132.079 209.428 126.926 203.86 126.926C198.291 126.926 193.777 132.079 193.777 138.435C193.777 144.791 198.291 149.944 203.86 149.944Z" fill="#00BFA6"/>
<path opacity="0.4" d="M95.7636 183.022C101.332 183.022 105.846 177.869 105.846 171.513C105.846 165.157 101.332 160.004 95.7636 160.004C90.1949 160.004 85.6807 165.157 85.6807 171.513C85.6807 177.869 90.1949 183.022 95.7636 183.022Z" fill="#00BFA6"/>
<path opacity="0.4" d="M393.889 145.656C401.827 145.656 408.262 138.311 408.262 129.25C408.262 120.189 401.827 112.843 393.889 112.843C385.95 112.843 379.515 120.189 379.515 129.25C379.515 138.311 385.95 145.656 393.889 145.656Z" fill="#00BFA6"/>
<path d="M26.049 266.338C26.8282 269.626 29.4971 271.662 29.4971 271.662C29.4971 271.662 30.9027 268.367 30.1235 265.08C29.3443 261.792 26.6754 259.756 26.6754 259.756C26.6754 259.756 25.2698 263.05 26.049 266.338Z" fill="#3F3D56"/>
<path d="M27.1941 265.631C29.3322 268.007 29.5933 271.659 29.5933 271.659C29.5933 271.659 26.388 271.459 24.2499 269.083C22.1118 266.708 21.8506 263.056 21.8506 263.056C21.8506 263.056 25.056 263.255 27.1941 265.631Z" fill="#00BFA6"/>
<path d="M307.558 266.338C308.337 269.626 311.006 271.662 311.006 271.662C311.006 271.662 312.412 268.367 311.633 265.08C310.854 261.792 308.185 259.756 308.185 259.756C308.185 259.756 306.779 263.05 307.558 266.338Z" fill="#3F3D56"/>
<path d="M308.703 265.631C310.841 268.007 311.103 271.659 311.103 271.659C311.103 271.659 307.897 271.459 305.759 269.083C303.621 266.708 303.36 263.056 303.36 263.056C303.36 263.056 306.565 263.255 308.703 265.631Z" fill="#00BFA6"/>
<path d="M31.3418 241.624L29.4388 238.004L47.2006 220.626H92.8741V225.695L76.381 245.969L57.3501 250.313L31.3418 241.624Z" fill="#3F3D56"/>
<path d="M100.736 230.824V219.496H94.7564V223.068L92.8741 220.627L77.6496 238.004L75.1119 240.9L71.9403 255.382L77.6496 271.311H106.83V238.728L100.736 230.824Z" fill="#CCCCCC"/>
<path d="M77.6495 238.004H29.4388V271.312H77.6495V238.004Z" fill="#F2F2F2"/>
<path d="M70.9888 248.503H60.8392V258.64H70.9888V248.503Z" fill="#3F3D56"/>
<path d="M56.716 248.141H47.8351V271.311H56.716V248.141Z" fill="#CCCCCC"/>
<path d="M37.6854 251.761V248.141H33.8795V251.761H37.368H37.6854Z" fill="#3F3D56"/>
<path d="M37.368 254.658H33.8795V258.278H37.6854V254.658H37.368Z" fill="#3F3D56"/>
<path d="M44.029 248.141H40.2229V251.761H44.029V248.141Z" fill="#3F3D56"/>
<path d="M44.029 254.658H40.2229V258.278H44.029V254.658Z" fill="#3F3D56"/>
<path d="M91.2881 252.124V248.503H87.4817V252.124H90.9707H91.2881Z" fill="#3F3D56"/>
<path d="M90.9707 255.02H87.4817V258.64H91.2881V255.02H90.9707Z" fill="#3F3D56"/>
<path d="M97.6316 248.503H93.8254V252.124H97.6316V248.503Z" fill="#3F3D56"/>
<path d="M97.6316 255.02H93.8254V258.64H97.6316V255.02Z" fill="#3F3D56"/>
<path d="M214.875 241.624L212.972 238.004L230.734 220.626H276.407V225.695L259.914 245.969L240.883 250.313L214.875 241.624Z" fill="#3F3D56"/>
<path d="M284.269 230.824V219.496H278.289V223.068L276.407 220.627L261.183 238.004L258.645 240.9L255.473 255.382L261.183 271.311H290.362V238.728L284.269 230.824Z" fill="#CCCCCC"/>
<path d="M261.182 238.004H212.972V271.312H261.182V238.004Z" fill="#F2F2F2"/>
<path d="M254.522 248.503H244.372V258.64H254.522V248.503Z" fill="#3F3D56"/>
<path d="M240.249 248.141H231.368V271.311H240.249V248.141Z" fill="#CCCCCC"/>
<path d="M221.218 251.761V248.141H217.412V251.761H220.901H221.218Z" fill="#3F3D56"/>
<path d="M220.901 254.658H217.412V258.278H221.218V254.658H220.901Z" fill="#3F3D56"/>
<path d="M227.562 248.141H223.756V251.761H227.562V248.141Z" fill="#3F3D56"/>
<path d="M227.562 254.658H223.756V258.278H227.562V254.658Z" fill="#3F3D56"/>
<path d="M274.821 252.124V248.503H271.015V252.124H274.504H274.821Z" fill="#3F3D56"/>
<path d="M274.504 255.02H271.015V258.64H274.821V255.02H274.504Z" fill="#3F3D56"/>
<path d="M281.164 248.503H277.358V252.124H281.164V248.503Z" fill="#3F3D56"/>
<path d="M281.164 255.02H277.358V258.64H281.164V255.02Z" fill="#3F3D56"/>
<path d="M129.032 180.803L125.86 177.906L143.622 159.805H188.661V175.734L159.481 198.181L129.032 180.803Z" fill="#3F3D56"/>
<path d="M196.873 169.959V160.166H190.893V162.565L188.661 159.805L174.071 177.906L168.362 182.251L159.51 256.073L172.86 271.311H203.885V178.63L196.873 169.959Z" fill="#CCCCCC"/>
<path d="M174.071 177.907H125.86V271.312H174.071V177.907Z" fill="#F2F2F2"/>
<path d="M153.454 248.503H144.573V271.312H153.454V248.503Z" fill="#CCCCCC"/>
<path d="M135.058 255.02V251.4H131.252V255.02H134.741H135.058Z" fill="#3F3D56"/>
<path d="M134.741 257.916H131.252V261.537H135.058V257.916H134.741Z" fill="#3F3D56"/>
<path d="M141.402 251.399H137.596V255.02H141.402V251.399Z" fill="#3F3D56"/>
<path d="M141.402 257.916H137.596V261.536H141.402V257.916Z" fill="#3F3D56"/>
<path d="M161.066 255.02V251.4H157.261V255.02H160.75H161.066Z" fill="#3F3D56"/>
<path d="M160.75 257.916H157.261V261.537H161.066V257.916H160.75Z" fill="#3F3D56"/>
<path d="M167.41 251.399H163.604V255.02H167.41V251.399Z" fill="#3F3D56"/>
<path d="M167.41 257.916H163.604V261.536H167.41V257.916Z" fill="#3F3D56"/>
<path d="M187.709 182.613V178.993H183.903V182.613H187.392H187.709Z" fill="#3F3D56"/>
<path d="M187.392 185.509H183.903V189.129H187.709V185.509H187.392Z" fill="#3F3D56"/>
<path d="M194.053 178.993H190.247V182.613H194.053V178.993Z" fill="#3F3D56"/>
<path d="M194.053 185.509H190.247V189.13H194.053V185.509Z" fill="#3F3D56"/>
<path d="M187.709 202.887V199.267H183.903V202.887H187.392H187.709Z" fill="#3F3D56"/>
<path d="M187.392 205.783H183.903V209.403H187.709V205.783H187.392Z" fill="#3F3D56"/>
<path d="M194.053 199.267H190.247V202.887H194.053V199.267Z" fill="#3F3D56"/>
<path d="M194.053 205.783H190.247V209.404H194.053V205.783Z" fill="#3F3D56"/>
<path d="M187.709 223.161V219.541H183.903V223.161H187.392H187.709Z" fill="#3F3D56"/>
<path d="M187.392 226.057H183.903V229.677H187.709V226.057H187.392Z" fill="#3F3D56"/>
<path d="M194.053 219.541H190.247V223.161H194.053V219.541Z" fill="#3F3D56"/>
<path d="M194.053 226.057H190.247V229.677H194.053V226.057Z" fill="#3F3D56"/>
<path d="M187.709 243.435V239.814H183.903V243.435H187.392H187.709Z" fill="#3F3D56"/>
<path d="M187.392 246.331H183.903V249.951H187.709V246.331H187.392Z" fill="#3F3D56"/>
<path d="M194.053 239.814H190.247V243.435H194.053V239.814Z" fill="#3F3D56"/>
<path d="M194.053 246.331H190.247V249.951H194.053V246.331Z" fill="#3F3D56"/>
<path d="M168.045 182.613H131.252V191.302H168.045V182.613Z" fill="#3F3D56"/>
<path d="M168.045 199.991H131.252V208.68H168.045V199.991Z" fill="#3F3D56"/>
<path d="M168.045 217.368H131.252V226.057H168.045V217.368Z" fill="#3F3D56"/>
<path d="M168.045 234.746H131.252V243.435H168.045V234.746Z" fill="#3F3D56"/>
<path d="M314.405 180.803L311.233 177.906L328.995 159.805H374.034V175.734L344.854 198.181L314.405 180.803Z" fill="#3F3D56"/>
<path d="M382.245 169.959V160.166H376.266V162.565L374.034 159.805L359.444 177.906L353.735 182.251L344.882 256.073L358.233 271.311H389.258V178.63L382.245 169.959Z" fill="#CCCCCC"/>
<path d="M359.444 177.907H311.233V271.312H359.444V177.907Z" fill="#F2F2F2"/>
<path d="M338.827 248.503H329.946V271.312H338.827V248.503Z" fill="#CCCCCC"/>
<path d="M320.431 255.02V251.4H316.625V255.02H320.114H320.431Z" fill="#3F3D56"/>
<path d="M320.114 257.916H316.625V261.537H320.431V257.916H320.114Z" fill="#3F3D56"/>
<path d="M326.775 251.399H322.969V255.02H326.775V251.399Z" fill="#3F3D56"/>
<path d="M326.775 257.916H322.969V261.536H326.775V257.916Z" fill="#3F3D56"/>
<path d="M346.439 255.02V251.4H342.634V255.02H346.123H346.439Z" fill="#3F3D56"/>
<path d="M346.123 257.916H342.634V261.537H346.439V257.916H346.123Z" fill="#3F3D56"/>
<path d="M352.783 251.399H348.977V255.02H352.783V251.399Z" fill="#3F3D56"/>
<path d="M352.783 257.916H348.977V261.536H352.783V257.916Z" fill="#3F3D56"/>
<path d="M373.082 182.613V178.993H369.276V182.613H372.765H373.082Z" fill="#3F3D56"/>
<path d="M372.765 185.509H369.276V189.129H373.082V185.509H372.765Z" fill="#3F3D56"/>
<path d="M379.426 178.993H375.62V182.613H379.426V178.993Z" fill="#3F3D56"/>
<path d="M379.426 185.509H375.62V189.13H379.426V185.509Z" fill="#3F3D56"/>
<path d="M373.082 202.887V199.267H369.276V202.887H372.765H373.082Z" fill="#3F3D56"/>
<path d="M372.765 205.783H369.276V209.403H373.082V205.783H372.765Z" fill="#3F3D56"/>
<path d="M379.426 199.267H375.62V202.887H379.426V199.267Z" fill="#3F3D56"/>
<path d="M379.426 205.783H375.62V209.404H379.426V205.783Z" fill="#3F3D56"/>
<path d="M373.082 223.161V219.541H369.276V223.161H372.765H373.082Z" fill="#3F3D56"/>
<path d="M372.765 226.057H369.276V229.677H373.082V226.057H372.765Z" fill="#3F3D56"/>
<path d="M379.426 219.541H375.62V223.161H379.426V219.541Z" fill="#3F3D56"/>
<path d="M379.426 226.057H375.62V229.677H379.426V226.057Z" fill="#3F3D56"/>
<path d="M373.082 243.435V239.814H369.276V243.435H372.765H373.082Z" fill="#3F3D56"/>
<path d="M372.765 246.331H369.276V249.951H373.082V246.331H372.765Z" fill="#3F3D56"/>
<path d="M379.426 239.814H375.62V243.435H379.426V239.814Z" fill="#3F3D56"/>
<path d="M379.426 246.331H375.62V249.951H379.426V246.331Z" fill="#3F3D56"/>
<path d="M353.417 182.613H316.625V191.302H353.417V182.613Z" fill="#3F3D56"/>
<path d="M353.417 199.991H316.625V208.68H353.417V199.991Z" fill="#3F3D56"/>
<path d="M353.417 217.368H316.625V226.057H353.417V217.368Z" fill="#3F3D56"/>
<path d="M353.417 234.746H316.625V243.435H353.417V234.746Z" fill="#3F3D56"/>
<path d="M416.061 180.803L412.889 177.906L430.651 159.805H475.69V175.734L446.51 198.181L416.061 180.803Z" fill="#3F3D56"/>
<path d="M483.901 169.959V160.166H477.922V162.565L475.69 159.805L461.1 177.906L455.391 182.251L446.538 256.073L459.889 271.311H490.914V178.63L483.901 169.959Z" fill="#CCCCCC"/>
<path d="M461.1 177.907H412.889V271.312H461.1V177.907Z" fill="#F2F2F2"/>
<path d="M440.484 248.503H431.603V271.312H440.484V248.503Z" fill="#CCCCCC"/>
<path d="M422.087 255.02V251.4H418.281V255.02H421.77H422.087Z" fill="#3F3D56"/>
<path d="M421.77 257.916H418.281V261.537H422.087V257.916H421.77Z" fill="#3F3D56"/>
<path d="M428.431 251.399H424.625V255.02H428.431V251.399Z" fill="#3F3D56"/>
<path d="M428.431 257.916H424.625V261.536H428.431V257.916Z" fill="#3F3D56"/>
<path d="M448.096 255.02V251.4H444.29V255.02H447.779H448.096Z" fill="#3F3D56"/>
<path d="M447.779 257.916H444.29V261.537H448.096V257.916H447.779Z" fill="#3F3D56"/>
<path d="M454.439 251.399H450.633V255.02H454.439V251.399Z" fill="#3F3D56"/>
<path d="M454.439 257.916H450.633V261.536H454.439V257.916Z" fill="#3F3D56"/>
<path d="M474.738 182.613V178.993H470.932V182.613H474.421H474.738Z" fill="#3F3D56"/>
<path d="M474.421 185.509H470.932V189.129H474.738V185.509H474.421Z" fill="#3F3D56"/>
<path d="M481.082 178.993H477.276V182.613H481.082V178.993Z" fill="#3F3D56"/>
<path d="M481.082 185.509H477.276V189.13H481.082V185.509Z" fill="#3F3D56"/>
<path d="M474.738 202.887V199.267H470.932V202.887H474.421H474.738Z" fill="#3F3D56"/>
<path d="M474.421 205.783H470.932V209.403H474.738V205.783H474.421Z" fill="#3F3D56"/>
<path d="M481.082 199.267H477.276V202.887H481.082V199.267Z" fill="#3F3D56"/>
<path d="M481.082 205.783H477.276V209.404H481.082V205.783Z" fill="#3F3D56"/>
<path d="M474.738 223.161V219.541H470.932V223.161H474.421H474.738Z" fill="#3F3D56"/>
<path d="M474.421 226.057H470.932V229.677H474.738V226.057H474.421Z" fill="#3F3D56"/>
<path d="M481.082 219.541H477.276V223.161H481.082V219.541Z" fill="#3F3D56"/>
<path d="M481.082 226.057H477.276V229.677H481.082V226.057Z" fill="#3F3D56"/>
<path d="M474.738 243.435V239.814H470.932V243.435H474.421H474.738Z" fill="#3F3D56"/>
<path d="M474.421 246.331H470.932V249.951H474.738V246.331H474.421Z" fill="#3F3D56"/>
<path d="M481.082 239.814H477.276V243.435H481.082V239.814Z" fill="#3F3D56"/>
<path d="M481.082 246.331H477.276V249.951H481.082V246.331Z" fill="#3F3D56"/>
<path d="M455.074 182.613H418.281V191.302H455.074V182.613Z" fill="#3F3D56"/>
<path d="M455.074 199.991H418.281V208.68H455.074V199.991Z" fill="#3F3D56"/>
<path d="M455.074 217.368H418.281V226.057H455.074V217.368Z" fill="#3F3D56"/>
<path d="M455.074 234.746H418.281V243.435H455.074V234.746Z" fill="#3F3D56"/>
<path d="M523 270.95H0V272H523V270.95Z" fill="#3F3D56"/>
<path d="M116.836 229.472H115.916V270.95H116.836V229.472Z" fill="#3F3D56"/>
<path d="M125.326 234.758C125.384 249.262 116.444 261.067 116.444 261.067C116.444 261.067 107.41 249.356 107.351 234.852C107.293 220.348 116.232 208.543 116.232 208.543C116.232 208.543 125.267 220.254 125.326 234.758Z" fill="#00BFA6"/>
<path d="M208.832 229.472H207.912V270.95H208.832V229.472Z" fill="#3F3D56"/>
<path d="M217.322 234.758C217.381 249.262 208.441 261.067 208.441 261.067C208.441 261.067 199.406 249.356 199.348 234.852C199.289 220.348 208.229 208.543 208.229 208.543C208.229 208.543 217.264 220.254 217.322 234.758Z" fill="#00BFA6"/>
<path d="M392.365 229.472H391.445V270.95H392.365V229.472Z" fill="#3F3D56"/>
<path d="M400.855 234.758C400.914 249.262 391.974 261.067 391.974 261.067C391.974 261.067 382.939 249.356 382.881 234.852C382.822 220.348 391.762 208.543 391.762 208.543C391.762 208.543 400.797 220.254 400.855 234.758Z" fill="#00BFA6"/>
<path d="M270.24 90.3332C279.893 90.3332 287.719 88.3233 287.719 85.8441C287.719 83.3648 279.893 81.355 270.24 81.355C260.586 81.355 252.76 83.3648 252.76 85.8441C252.76 88.3233 260.586 90.3332 270.24 90.3332Z" fill="#00BFA6"/>
<path d="M290.019 23.1017C290.019 35.8605 269.78 71.9304 269.78 71.9304C269.78 71.9304 249.54 35.8605 249.54 23.1017C249.54 16.9748 251.673 11.0987 255.468 6.76634C259.264 2.43392 264.412 0 269.78 0C275.147 0 280.295 2.43392 284.091 6.76634C287.887 11.0987 290.019 16.9748 290.019 23.1017Z" fill="#00BFA6"/>
<path d="M269.78 36.2275C276.131 36.2275 281.279 30.3508 281.279 23.1016C281.279 15.8523 276.131 9.97559 269.78 9.97559C263.429 9.97559 258.28 15.8523 258.28 23.1016C258.28 30.3508 263.429 36.2275 269.78 36.2275Z" fill="#F2F2F2"/>
</g>
<defs>
<clipPath id="clip0">
<rect width="523" height="272" fill="white"/>
</clipPath>
</defs>
</svg>