<svg width="315" height="241" viewBox="0 0 315 241" fill="none" xmlns="http://www.w3.org/2000/svg">
<g clip-path="url(#clip0)">
<path d="M44.9956 142.205C56.0194 142.205 64.9559 133.25 64.9559 122.203C64.9559 111.156 56.0194 102.2 44.9956 102.2C33.9717 102.2 25.0352 111.156 25.0352 122.203C25.0352 133.25 33.9717 142.205 44.9956 142.205Z" fill="#FF6584"/>
<path d="M85.8724 235.186H85.8522C85.1493 235.185 84.4755 234.905 83.9785 234.407C83.4815 233.909 83.202 233.233 83.2012 232.529V76.5721C83.202 75.8678 83.4815 75.1925 83.9785 74.6945C84.4755 74.1965 85.1493 73.9163 85.8522 73.9155H216.842C217.545 73.9163 218.219 74.1965 218.716 74.6945C219.213 75.1925 219.492 75.8678 219.493 76.5721V197.837C219.492 198.538 219.216 199.21 218.723 199.707C218.231 200.205 217.562 200.487 216.863 200.494L85.8724 235.186Z" fill="#F2F2F2"/>
<path d="M182.691 51.8817H121.875V16.5648C121.875 15.8191 122.171 15.1041 122.698 14.5768C123.224 14.0494 123.937 13.7528 124.681 13.752H179.884C180.629 13.7528 181.342 14.0494 181.868 14.5768C182.395 15.1041 182.691 15.8191 182.691 16.5648V51.8817ZM122.498 51.2566H182.068V16.5648C182.067 15.9848 181.837 15.4287 181.427 15.0185C181.018 14.6084 180.463 14.3777 179.884 14.377H124.681C124.103 14.3777 123.548 14.6084 123.138 15.0185C122.729 15.4287 122.499 15.9848 122.498 16.5648V51.2566Z" fill="#3F3D56"/>
<path d="M139.184 27.1909H165.382C166.043 27.1909 166.678 27.4543 167.146 27.9232C167.614 28.3921 167.877 29.0281 167.877 29.6912V67.1959H136.688V29.6912C136.688 29.0281 136.951 28.3921 137.419 27.9232C137.887 27.4543 138.522 27.1909 139.184 27.1909Z" fill="#E6E6E6"/>
<path d="M144.33 14.3768H131.542V1.56269C131.543 1.14839 131.707 0.751185 132 0.458226C132.292 0.165267 132.688 0.000473981 133.102 0H142.77C143.184 0.000473981 143.58 0.165267 143.872 0.458226C144.165 0.751185 144.329 1.14839 144.33 1.56269V14.3768ZM132.166 13.7517H143.706V1.56269C143.706 1.31411 143.607 1.07578 143.432 0.899999C143.256 0.724221 143.018 0.625349 142.77 0.625078H133.102C132.854 0.625349 132.616 0.724221 132.441 0.899999C132.265 1.07578 132.167 1.31411 132.166 1.56269V13.7517Z" fill="#3F3D56"/>
<path d="M249.406 202.788C249.282 202.788 249.161 202.788 249.036 202.785C241.321 202.699 233.901 199.793 228.173 194.613C227.961 194.42 227.751 194.224 227.543 194.025L227.446 193.933V134.034L227.476 133.971C227.682 133.532 227.892 133.1 228.101 132.668C234.589 119.469 242.154 112.202 249.406 112.202C259.863 112.202 267.973 126.576 271.877 135.145C277.305 147.06 281.096 161.825 281.096 171.05C281.094 179.407 277.803 187.426 271.938 193.367C266.073 199.308 258.107 202.692 249.768 202.785C249.651 202.788 249.527 202.788 249.406 202.788ZM228.07 193.665C228.243 193.829 228.417 193.99 228.592 194.15C234.209 199.228 241.483 202.077 249.048 202.16C249.174 202.163 249.293 202.159 249.414 202.163C249.527 202.163 249.643 202.163 249.757 202.16C266.695 201.972 280.472 188.016 280.472 171.05C280.472 161.905 276.704 147.247 271.309 135.405C267.468 126.972 259.514 112.827 249.406 112.827C242.405 112.827 235.038 119.971 228.662 132.942C228.464 133.35 228.266 133.76 228.07 134.174L228.07 193.665Z" fill="#3F3D56"/>
<path d="M249.404 240.682C249.309 240.682 249.218 240.645 249.151 240.577C249.083 240.51 249.045 240.418 249.045 240.323V166.917C249.045 166.87 249.054 166.823 249.072 166.779C249.09 166.735 249.116 166.695 249.15 166.662C249.183 166.628 249.223 166.601 249.266 166.583C249.31 166.565 249.357 166.556 249.404 166.556C249.452 166.556 249.498 166.565 249.542 166.583C249.586 166.601 249.625 166.628 249.659 166.662C249.692 166.695 249.718 166.735 249.736 166.779C249.754 166.823 249.763 166.87 249.763 166.917V240.323C249.763 240.418 249.725 240.51 249.658 240.577C249.591 240.645 249.499 240.682 249.404 240.682Z" fill="#CCCCCC"/>
<path d="M63.2114 240.682C63.1162 240.682 63.0249 240.645 62.9576 240.577C62.8903 240.51 62.8526 240.418 62.8525 240.323V166.917C62.8523 166.87 62.8613 166.823 62.8792 166.779C62.8971 166.735 62.9235 166.695 62.9569 166.662C62.9902 166.628 63.0299 166.601 63.0736 166.583C63.1172 166.565 63.1641 166.556 63.2114 166.556C63.2587 166.556 63.3055 166.565 63.3492 166.583C63.3928 166.601 63.4325 166.628 63.4658 166.662C63.4992 166.695 63.5256 166.735 63.5435 166.779C63.5614 166.823 63.5705 166.87 63.5702 166.917V240.323C63.5702 240.418 63.5324 240.51 63.4651 240.577C63.3978 240.645 63.3065 240.682 63.2114 240.682Z" fill="#CCCCCC"/>
<path d="M249.404 180.632C249.353 180.632 249.302 180.621 249.255 180.6C249.208 180.578 249.167 180.547 249.133 180.508L231.086 159.652C231.024 159.58 230.993 159.486 231 159.391C231.007 159.296 231.051 159.208 231.123 159.146C231.195 159.083 231.288 159.052 231.383 159.058C231.478 159.065 231.566 159.109 231.629 159.181L249.675 180.037C249.72 180.089 249.749 180.153 249.759 180.221C249.769 180.289 249.759 180.359 249.73 180.422C249.702 180.484 249.656 180.538 249.598 180.575C249.54 180.612 249.473 180.632 249.404 180.632V180.632Z" fill="#CCCCCC"/>
<path d="M249.404 192.668C249.333 192.668 249.264 192.647 249.205 192.608C249.146 192.568 249.1 192.512 249.073 192.446C249.046 192.381 249.038 192.308 249.052 192.239C249.066 192.169 249.1 192.105 249.15 192.055L259.405 181.778C259.472 181.711 259.563 181.674 259.658 181.674C259.753 181.674 259.844 181.712 259.912 181.779C259.979 181.846 260.017 181.938 260.017 182.033C260.017 182.128 259.979 182.219 259.912 182.287L249.658 192.563C249.625 192.597 249.585 192.623 249.542 192.641C249.498 192.659 249.451 192.669 249.404 192.668Z" fill="#CCCCCC"/>
<path d="M282.603 240.831H255.78V240.519C255.779 238.753 256.125 237.005 256.799 235.373C257.472 233.742 258.46 232.26 259.706 231.011C260.951 229.762 262.43 228.772 264.058 228.096C265.685 227.42 267.43 227.072 269.191 227.072C270.953 227.072 272.698 227.42 274.325 228.096C275.953 228.772 277.432 229.762 278.677 231.011C279.923 232.26 280.91 233.742 281.584 235.373C282.258 237.005 282.604 238.753 282.603 240.519L282.603 240.831ZM256.407 240.206H281.976C281.894 236.863 280.512 233.683 278.123 231.347C275.734 229.011 272.529 227.704 269.191 227.704C265.854 227.704 262.649 229.011 260.26 231.347C257.871 233.683 256.489 236.863 256.407 240.206H256.407Z" fill="#3F3D56"/>
<path d="M269.191 232.89C269.097 232.89 269.007 232.928 268.941 232.994C268.874 233.061 268.837 233.151 268.837 233.245V237.014L265.173 233.863C265.138 233.832 265.097 233.809 265.053 233.794C265.009 233.78 264.962 233.774 264.916 233.778C264.869 233.781 264.824 233.794 264.782 233.815C264.741 233.836 264.704 233.865 264.673 233.9C264.643 233.936 264.62 233.977 264.605 234.021C264.591 234.065 264.585 234.112 264.589 234.159C264.593 234.205 264.605 234.251 264.626 234.292C264.647 234.334 264.677 234.371 264.712 234.401L268.837 237.949V240.163C268.837 240.21 268.846 240.256 268.864 240.3C268.882 240.343 268.908 240.382 268.94 240.415C268.973 240.448 269.012 240.474 269.055 240.492C269.098 240.51 269.145 240.519 269.191 240.519C269.238 240.519 269.284 240.51 269.327 240.492C269.37 240.474 269.409 240.448 269.442 240.415C269.475 240.382 269.501 240.343 269.519 240.3C269.536 240.256 269.545 240.21 269.545 240.163V233.245C269.545 233.151 269.508 233.061 269.442 232.994C269.375 232.928 269.285 232.89 269.191 232.89Z" fill="#3F3D56"/>
<path d="M57.7365 240.831H30.9131V240.519C30.9122 238.753 31.2585 237.005 31.9321 235.373C32.6058 233.742 33.5935 232.26 34.839 231.011C36.0845 229.762 37.5632 228.772 39.1908 228.096C40.8184 227.42 42.563 227.072 44.3248 227.072C46.0866 227.072 47.8311 227.42 49.4587 228.096C51.0863 228.772 52.5651 229.762 53.8106 231.011C55.056 232.26 56.0438 233.742 56.7174 235.373C57.391 237.005 57.7373 238.753 57.7365 240.519L57.7365 240.831ZM31.5406 240.206H57.109C57.0276 236.863 55.6449 233.683 53.2563 231.347C50.8677 229.011 47.6624 227.704 44.3248 227.704C40.9872 227.704 37.7819 229.011 35.3932 231.347C33.0046 233.683 31.622 236.863 31.5406 240.206H31.5406Z" fill="#3F3D56"/>
<path d="M44.325 232.89C44.2311 232.89 44.141 232.928 44.0746 232.994C44.0082 233.061 43.9709 233.151 43.9709 233.245V237.014L40.307 233.863C40.2718 233.832 40.2309 233.809 40.1866 233.794C40.1424 233.78 40.0957 233.774 40.0493 233.778C40.0029 233.781 39.9576 233.794 39.916 233.815C39.8744 233.836 39.8374 233.865 39.8071 233.9C39.7768 233.936 39.7537 233.977 39.7392 234.021C39.7247 234.065 39.7191 234.112 39.7227 234.159C39.7263 234.205 39.739 234.251 39.7602 234.292C39.7813 234.334 39.8104 234.371 39.8458 234.401L43.9709 237.949V240.163C43.9707 240.21 43.9798 240.256 43.9975 240.3C44.0153 240.343 44.0413 240.382 44.0742 240.415C44.1071 240.448 44.1462 240.474 44.1892 240.492C44.2322 240.51 44.2784 240.519 44.325 240.519C44.3715 240.519 44.4177 240.51 44.4607 240.492C44.5037 240.474 44.5428 240.448 44.5757 240.415C44.6086 240.382 44.6346 240.343 44.6524 240.3C44.6701 240.256 44.6792 240.21 44.679 240.163V233.245C44.679 233.151 44.6417 233.061 44.5753 232.994C44.5089 232.928 44.4188 232.89 44.325 232.89Z" fill="#3F3D56"/>
<path d="M63.5245 202.788C63.4002 202.788 63.2791 202.788 63.1548 202.785C54.8168 202.69 46.852 199.306 40.9881 193.365C35.1242 187.424 31.834 179.406 31.8311 171.05C31.8311 161.824 35.6223 147.06 41.0507 135.145C44.9546 126.576 53.0654 112.202 63.5245 112.202C67.8325 112.202 72.1705 114.662 76.4181 119.515C76.6288 119.755 76.8399 120.001 77.048 120.254L77.1193 120.34V199.721L76.9434 199.806C76.7335 199.908 76.5205 200.004 76.3076 200.096C72.3935 201.832 68.1665 202.747 63.8864 202.785C63.77 202.788 63.6456 202.788 63.5245 202.788ZM63.5245 112.827C53.4142 112.827 45.4598 126.972 41.6182 135.405C36.2229 147.247 32.4548 161.904 32.4548 171.05C32.4548 188.013 46.2319 201.969 63.1661 202.16C63.2923 202.163 63.41 202.164 63.5327 202.163C63.6459 202.163 63.762 202.163 63.8751 202.16C68.0729 202.123 72.2187 201.226 76.0576 199.524C76.2048 199.46 76.3508 199.395 76.4955 199.327V120.565C76.315 120.348 76.1323 120.136 75.9497 119.928C71.8252 115.216 67.645 112.827 63.5245 112.827Z" fill="#3F3D56"/>
<path d="M63.5233 180.632C63.4719 180.632 63.421 180.621 63.3742 180.6C63.3274 180.578 63.2857 180.547 63.252 180.508L45.2054 159.652C45.1433 159.58 45.1123 159.486 45.1191 159.391C45.1259 159.296 45.1701 159.208 45.2419 159.146C45.3137 159.083 45.4073 159.052 45.5021 159.058C45.597 159.065 45.6853 159.109 45.7477 159.181L63.7943 180.037C63.8393 180.089 63.8685 180.153 63.8783 180.221C63.8881 180.289 63.8781 180.359 63.8496 180.422C63.821 180.484 63.7751 180.538 63.7173 180.575C63.6594 180.612 63.5921 180.632 63.5233 180.632V180.632Z" fill="#CCCCCC"/>
<path d="M63.5228 192.668C63.4519 192.668 63.3825 192.647 63.3235 192.608C63.2645 192.568 63.2185 192.512 63.1914 192.446C63.1642 192.381 63.1571 192.308 63.171 192.239C63.1848 192.169 63.219 192.105 63.2691 192.055L73.5235 181.778C73.5909 181.711 73.682 181.674 73.777 181.674C73.872 181.674 73.9631 181.712 74.0302 181.779C74.0974 181.846 74.1352 181.938 74.1353 182.033C74.1354 182.128 74.0979 182.219 74.0309 182.287L63.7766 192.563C63.7433 192.597 63.7037 192.623 63.6602 192.641C63.6167 192.659 63.57 192.669 63.5228 192.668Z" fill="#CCCCCC"/>
<path d="M91.7029 54.3817L91.9337 54.838C92.036 55.0349 92.0895 55.2536 92.0897 55.4756V67.8209H103.005V55.4756C103.006 55.2536 103.059 55.0349 103.161 54.838L103.392 54.3817H91.7029ZM102.382 55.4756V67.1958H92.7134V55.4756C92.7136 55.3177 92.6947 55.1602 92.6572 55.0068H102.438C102.4 55.1602 102.382 55.3177 102.382 55.4756ZM105.426 54.3817L105.656 54.838C105.759 55.0349 105.812 55.2536 105.812 55.4756V67.8209H116.728V55.4756C116.728 55.2536 116.782 55.0349 116.884 54.838L117.115 54.3817H105.426ZM116.105 55.4756V67.1958H106.436V55.4756C106.436 55.3177 106.418 55.1602 106.38 55.0068H116.161C116.123 55.1602 116.104 55.3177 116.105 55.4756ZM119.148 54.3817L119.379 54.838C119.482 55.0349 119.535 55.2536 119.535 55.4756V67.8209H130.451V55.4756C130.451 55.2536 130.505 55.0349 130.607 54.838L130.838 54.3817H119.148ZM129.827 55.4756V67.1958H120.159V55.4756C120.159 55.3177 120.14 55.1602 120.103 55.0068H129.883C129.846 55.1602 129.827 55.3177 129.827 55.4756ZM132.871 54.3817L133.102 54.838C133.204 55.0349 133.258 55.2536 133.258 55.4756V67.8209H144.174V55.4756C144.174 55.2536 144.227 55.0349 144.33 54.838L144.561 54.3817H132.871ZM143.55 55.4756V67.1958H133.882V55.4756C133.882 55.3177 133.863 55.1602 133.826 55.0068H143.606C143.569 55.1602 143.55 55.3177 143.55 55.4756ZM146.594 54.3817L146.825 54.838C146.927 55.0349 146.981 55.2536 146.981 55.4756V67.8209H157.897V55.4756C157.897 55.2536 157.95 55.0349 158.053 54.838L158.283 54.3817H146.594ZM157.273 55.4756V67.1958H147.605V55.4756C147.605 55.3177 147.586 55.1602 147.548 55.0068H157.329C157.292 55.1602 157.273 55.3177 157.273 55.4756ZM160.317 54.3817L160.548 54.838C160.65 55.0349 160.703 55.2536 160.704 55.4756V67.8209H171.619V55.4756C171.619 55.2536 171.673 55.0349 171.775 54.838L172.006 54.3817H160.317ZM170.996 55.4756V67.1958H161.327V55.4756C161.327 55.3177 161.309 55.1602 161.271 55.0068H171.052C171.014 55.1602 170.995 55.3177 170.996 55.4756ZM174.039 54.3817L174.27 54.838C174.373 55.0349 174.426 55.2536 174.426 55.4756V67.8209H185.342V55.4756C185.342 55.2536 185.396 55.0349 185.498 54.838L185.729 54.3817H174.039ZM184.718 55.4756V67.1958H175.05V55.4756C175.05 55.3177 175.031 55.1602 174.994 55.0068H184.775C184.737 55.1602 184.718 55.3177 184.718 55.4756ZM187.762 54.3817L187.993 54.838C188.095 55.0349 188.149 55.2536 188.149 55.4756V67.8209H199.065V55.4756C199.065 55.2536 199.119 55.0349 199.221 54.838L199.452 54.3817H187.762ZM198.441 55.4756V67.1958H188.773V55.4756C188.773 55.3177 188.754 55.1602 188.717 55.0068H198.497C198.46 55.1602 198.441 55.3177 198.441 55.4756ZM201.485 54.3817L201.716 54.838C201.818 55.0349 201.872 55.2536 201.872 55.4756V67.8209H212.788V55.4756C212.788 55.2536 212.841 55.0349 212.944 54.838L213.174 54.3817H201.485ZM212.164 55.4756V67.1958H202.496V55.4756C202.496 55.3177 202.477 55.1602 202.439 55.0068H212.22C212.183 55.1602 212.164 55.3177 212.164 55.4756ZM201.485 54.3817L201.716 54.838C201.818 55.0349 201.872 55.2536 201.872 55.4756V67.8209H212.788V55.4756C212.788 55.2536 212.841 55.0349 212.944 54.838L213.174 54.3817H201.485ZM212.164 55.4756V67.1958H202.496V55.4756C202.496 55.3177 202.477 55.1602 202.439 55.0068H212.22C212.183 55.1602 212.164 55.3177 212.164 55.4756ZM187.762 54.3817L187.993 54.838C188.095 55.0349 188.149 55.2536 188.149 55.4756V67.8209H199.065V55.4756C199.065 55.2536 199.119 55.0349 199.221 54.838L199.452 54.3817H187.762ZM198.441 55.4756V67.1958H188.773V55.4756C188.773 55.3177 188.754 55.1602 188.717 55.0068H198.497C198.46 55.1602 198.441 55.3177 198.441 55.4756ZM174.039 54.3817L174.27 54.838C174.373 55.0349 174.426 55.2536 174.426 55.4756V67.8209H185.342V55.4756C185.342 55.2536 185.396 55.0349 185.498 54.838L185.729 54.3817H174.039ZM184.718 55.4756V67.1958H175.05V55.4756C175.05 55.3177 175.031 55.1602 174.994 55.0068H184.775C184.737 55.1602 184.718 55.3177 184.718 55.4756ZM160.317 54.3817L160.548 54.838C160.65 55.0349 160.703 55.2536 160.704 55.4756V67.8209H171.619V55.4756C171.619 55.2536 171.673 55.0349 171.775 54.838L172.006 54.3817H160.317ZM170.996 55.4756V67.1958H161.327V55.4756C161.327 55.3177 161.309 55.1602 161.271 55.0068H171.052C171.014 55.1602 170.995 55.3177 170.996 55.4756ZM146.594 54.3817L146.825 54.838C146.927 55.0349 146.981 55.2536 146.981 55.4756V67.8209H157.897V55.4756C157.897 55.2536 157.95 55.0349 158.053 54.838L158.283 54.3817H146.594ZM157.273 55.4756V67.1958H147.605V55.4756C147.605 55.3177 147.586 55.1602 147.548 55.0068H157.329C157.292 55.1602 157.273 55.3177 157.273 55.4756ZM132.871 54.3817L133.102 54.838C133.204 55.0349 133.258 55.2536 133.258 55.4756V67.8209H144.174V55.4756C144.174 55.2536 144.227 55.0349 144.33 54.838L144.561 54.3817H132.871ZM143.55 55.4756V67.1958H133.882V55.4756C133.882 55.3177 133.863 55.1602 133.826 55.0068H143.606C143.569 55.1602 143.55 55.3177 143.55 55.4756ZM119.148 54.3817L119.379 54.838C119.482 55.0349 119.535 55.2536 119.535 55.4756V67.8209H130.451V55.4756C130.451 55.2536 130.505 55.0349 130.607 54.838L130.838 54.3817H119.148ZM129.827 55.4756V67.1958H120.159V55.4756C120.159 55.3177 120.14 55.1602 120.103 55.0068H129.883C129.846 55.1602 129.827 55.3177 129.827 55.4756ZM105.426 54.3817L105.656 54.838C105.759 55.0349 105.812 55.2536 105.812 55.4756V67.8209H116.728V55.4756C116.728 55.2536 116.782 55.0349 116.884 54.838L117.115 54.3817H105.426ZM116.105 55.4756V67.1958H106.436V55.4756C106.436 55.3177 106.418 55.1602 106.38 55.0068H116.161C116.123 55.1602 116.104 55.3177 116.105 55.4756ZM91.7029 54.3817L91.9337 54.838C92.036 55.0349 92.0895 55.2536 92.0897 55.4756V67.8209H103.005V55.4756C103.006 55.2536 103.059 55.0349 103.161 54.838L103.392 54.3817H91.7029ZM102.382 55.4756V67.1958H92.7134V55.4756C92.7136 55.3177 92.6947 55.1602 92.6572 55.0068H102.438C102.4 55.1602 102.382 55.3177 102.382 55.4756ZM201.485 54.3817L201.716 54.838C201.818 55.0349 201.872 55.2536 201.872 55.4756V67.8209H212.788V55.4756C212.788 55.2536 212.841 55.0349 212.944 54.838L213.174 54.3817H201.485ZM212.164 55.4756V67.1958H202.496V55.4756C202.496 55.3177 202.477 55.1602 202.439 55.0068H212.22C212.183 55.1602 212.164 55.3177 212.164 55.4756ZM187.762 54.3817L187.993 54.838C188.095 55.0349 188.149 55.2536 188.149 55.4756V67.8209H199.065V55.4756C199.065 55.2536 199.119 55.0349 199.221 54.838L199.452 54.3817H187.762ZM198.441 55.4756V67.1958H188.773V55.4756C188.773 55.3177 188.754 55.1602 188.717 55.0068H198.497C198.46 55.1602 198.441 55.3177 198.441 55.4756ZM174.039 54.3817L174.27 54.838C174.373 55.0349 174.426 55.2536 174.426 55.4756V67.8209H185.342V55.4756C185.342 55.2536 185.396 55.0349 185.498 54.838L185.729 54.3817H174.039ZM184.718 55.4756V67.1958H175.05V55.4756C175.05 55.3177 175.031 55.1602 174.994 55.0068H184.775C184.737 55.1602 184.718 55.3177 184.718 55.4756ZM160.317 54.3817L160.548 54.838C160.65 55.0349 160.703 55.2536 160.704 55.4756V67.8209H171.619V55.4756C171.619 55.2536 171.673 55.0349 171.775 54.838L172.006 54.3817H160.317ZM170.996 55.4756V67.1958H161.327V55.4756C161.327 55.3177 161.309 55.1602 161.271 55.0068H171.052C171.014 55.1602 170.995 55.3177 170.996 55.4756ZM146.594 54.3817L146.825 54.838C146.927 55.0349 146.981 55.2536 146.981 55.4756V67.8209H157.897V55.4756C157.897 55.2536 157.95 55.0349 158.053 54.838L158.283 54.3817H146.594ZM157.273 55.4756V67.1958H147.605V55.4756C147.605 55.3177 147.586 55.1602 147.548 55.0068H157.329C157.292 55.1602 157.273 55.3177 157.273 55.4756ZM132.871 54.3817L133.102 54.838C133.204 55.0349 133.258 55.2536 133.258 55.4756V67.8209H144.174V55.4756C144.174 55.2536 144.227 55.0349 144.33 54.838L144.561 54.3817H132.871ZM143.55 55.4756V67.1958H133.882V55.4756C133.882 55.3177 133.863 55.1602 133.826 55.0068H143.606C143.569 55.1602 143.55 55.3177 143.55 55.4756ZM119.148 54.3817L119.379 54.838C119.482 55.0349 119.535 55.2536 119.535 55.4756V67.8209H130.451V55.4756C130.451 55.2536 130.505 55.0349 130.607 54.838L130.838 54.3817H119.148ZM129.827 55.4756V67.1958H120.159V55.4756C120.159 55.3177 120.14 55.1602 120.103 55.0068H129.883C129.846 55.1602 129.827 55.3177 129.827 55.4756ZM105.426 54.3817L105.656 54.838C105.759 55.0349 105.812 55.2536 105.812 55.4756V67.8209H116.728V55.4756C116.728 55.2536 116.782 55.0349 116.884 54.838L117.115 54.3817H105.426ZM116.105 55.4756V67.1958H106.436V55.4756C106.436 55.3177 106.418 55.1602 106.38 55.0068H116.161C116.123 55.1602 116.104 55.3177 116.105 55.4756ZM91.7029 54.3817L91.9337 54.838C92.036 55.0349 92.0895 55.2536 92.0897 55.4756V67.8209H103.005V55.4756C103.006 55.2536 103.059 55.0349 103.161 54.838L103.392 54.3817H91.7029ZM102.382 55.4756V67.1958H92.7134V55.4756C92.7136 55.3177 92.6947 55.1602 92.6572 55.0068H102.438C102.4 55.1602 102.382 55.3177 102.382 55.4756ZM201.485 54.3817L201.716 54.838C201.818 55.0349 201.872 55.2536 201.872 55.4756V67.8209H212.788V55.4756C212.788 55.2536 212.841 55.0349 212.944 54.838L213.174 54.3817H201.485ZM212.164 55.4756V67.1958H202.496V55.4756C202.496 55.3177 202.477 55.1602 202.439 55.0068H212.22C212.183 55.1602 212.164 55.3177 212.164 55.4756ZM187.762 54.3817L187.993 54.838C188.095 55.0349 188.149 55.2536 188.149 55.4756V67.8209H199.065V55.4756C199.065 55.2536 199.119 55.0349 199.221 54.838L199.452 54.3817H187.762ZM198.441 55.4756V67.1958H188.773V55.4756C188.773 55.3177 188.754 55.1602 188.717 55.0068H198.497C198.46 55.1602 198.441 55.3177 198.441 55.4756ZM174.039 54.3817L174.27 54.838C174.373 55.0349 174.426 55.2536 174.426 55.4756V67.8209H185.342V55.4756C185.342 55.2536 185.396 55.0349 185.498 54.838L185.729 54.3817H174.039ZM184.718 55.4756V67.1958H175.05V55.4756C175.05 55.3177 175.031 55.1602 174.994 55.0068H184.775C184.737 55.1602 184.718 55.3177 184.718 55.4756ZM160.317 54.3817L160.548 54.838C160.65 55.0349 160.703 55.2536 160.704 55.4756V67.8209H171.619V55.4756C171.619 55.2536 171.673 55.0349 171.775 54.838L172.006 54.3817H160.317ZM170.996 55.4756V67.1958H161.327V55.4756C161.327 55.3177 161.309 55.1602 161.271 55.0068H171.052C171.014 55.1602 170.995 55.3177 170.996 55.4756ZM146.594 54.3817L146.825 54.838C146.927 55.0349 146.981 55.2536 146.981 55.4756V67.8209H157.897V55.4756C157.897 55.2536 157.95 55.0349 158.053 54.838L158.283 54.3817H146.594ZM157.273 55.4756V67.1958H147.605V55.4756C147.605 55.3177 147.586 55.1602 147.548 55.0068H157.329C157.292 55.1602 157.273 55.3177 157.273 55.4756ZM132.871 54.3817L133.102 54.838C133.204 55.0349 133.258 55.2536 133.258 55.4756V67.8209H144.174V55.4756C144.174 55.2536 144.227 55.0349 144.33 54.838L144.561 54.3817H132.871ZM143.55 55.4756V67.1958H133.882V55.4756C133.882 55.3177 133.863 55.1602 133.826 55.0068H143.606C143.569 55.1602 143.55 55.3177 143.55 55.4756ZM119.148 54.3817L119.379 54.838C119.482 55.0349 119.535 55.2536 119.535 55.4756V67.8209H130.451V55.4756C130.451 55.2536 130.505 55.0349 130.607 54.838L130.838 54.3817H119.148ZM129.827 55.4756V67.1958H120.159V55.4756C120.159 55.3177 120.14 55.1602 120.103 55.0068H129.883C129.846 55.1602 129.827 55.3177 129.827 55.4756ZM105.426 54.3817L105.656 54.838C105.759 55.0349 105.812 55.2536 105.812 55.4756V67.8209H116.728V55.4756C116.728 55.2536 116.782 55.0349 116.884 54.838L117.115 54.3817H105.426ZM116.105 55.4756V67.1958H106.436V55.4756C106.436 55.3177 106.418 55.1602 106.38 55.0068H116.161C116.123 55.1602 116.104 55.3177 116.105 55.4756ZM91.7029 54.3817L91.9337 54.838C92.036 55.0349 92.0895 55.2536 92.0897 55.4756V67.8209H103.005V55.4756C103.006 55.2536 103.059 55.0349 103.161 54.838L103.392 54.3817H91.7029ZM102.382 55.4756V67.1958H92.7134V55.4756C92.7136 55.3177 92.6947 55.1602 92.6572 55.0068H102.438C102.4 55.1602 102.382 55.3177 102.382 55.4756ZM201.485 54.3817L201.716 54.838C201.818 55.0349 201.872 55.2536 201.872 55.4756V67.8209H212.788V55.4756C212.788 55.2536 212.841 55.0349 212.944 54.838L213.174 54.3817H201.485ZM212.164 55.4756V67.1958H202.496V55.4756C202.496 55.3177 202.477 55.1602 202.439 55.0068H212.22C212.183 55.1602 212.164 55.3177 212.164 55.4756ZM187.762 54.3817L187.993 54.838C188.095 55.0349 188.149 55.2536 188.149 55.4756V67.8209H199.065V55.4756C199.065 55.2536 199.119 55.0349 199.221 54.838L199.452 54.3817H187.762ZM198.441 55.4756V67.1958H188.773V55.4756C188.773 55.3177 188.754 55.1602 188.717 55.0068H198.497C198.46 55.1602 198.441 55.3177 198.441 55.4756ZM174.039 54.3817L174.27 54.838C174.373 55.0349 174.426 55.2536 174.426 55.4756V67.8209H185.342V55.4756C185.342 55.2536 185.396 55.0349 185.498 54.838L185.729 54.3817H174.039ZM184.718 55.4756V67.1958H175.05V55.4756C175.05 55.3177 175.031 55.1602 174.994 55.0068H184.775C184.737 55.1602 184.718 55.3177 184.718 55.4756ZM160.317 54.3817L160.548 54.838C160.65 55.0349 160.703 55.2536 160.704 55.4756V67.8209H171.619V55.4756C171.619 55.2536 171.673 55.0349 171.775 54.838L172.006 54.3817H160.317ZM170.996 55.4756V67.1958H161.327V55.4756C161.327 55.3177 161.309 55.1602 161.271 55.0068H171.052C171.014 55.1602 170.995 55.3177 170.996 55.4756ZM146.594 54.3817L146.825 54.838C146.927 55.0349 146.981 55.2536 146.981 55.4756V67.8209H157.897V55.4756C157.897 55.2536 157.95 55.0349 158.053 54.838L158.283 54.3817H146.594ZM157.273 55.4756V67.1958H147.605V55.4756C147.605 55.3177 147.586 55.1602 147.548 55.0068H157.329C157.292 55.1602 157.273 55.3177 157.273 55.4756ZM132.871 54.3817L133.102 54.838C133.204 55.0349 133.258 55.2536 133.258 55.4756V67.8209H144.174V55.4756C144.174 55.2536 144.227 55.0349 144.33 54.838L144.561 54.3817H132.871ZM143.55 55.4756V67.1958H133.882V55.4756C133.882 55.3177 133.863 55.1602 133.826 55.0068H143.606C143.569 55.1602 143.55 55.3177 143.55 55.4756ZM119.148 54.3817L119.379 54.838C119.482 55.0349 119.535 55.2536 119.535 55.4756V67.8209H130.451V55.4756C130.451 55.2536 130.505 55.0349 130.607 54.838L130.838 54.3817H119.148ZM129.827 55.4756V67.1958H120.159V55.4756C120.159 55.3177 120.14 55.1602 120.103 55.0068H129.883C129.846 55.1602 129.827 55.3177 129.827 55.4756ZM105.426 54.3817L105.656 54.838C105.759 55.0349 105.812 55.2536 105.812 55.4756V67.8209H116.728V55.4756C116.728 55.2536 116.782 55.0349 116.884 54.838L117.115 54.3817H105.426ZM116.105 55.4756V67.1958H106.436V55.4756C106.436 55.3177 106.418 55.1602 106.38 55.0068H116.161C116.123 55.1602 116.104 55.3177 116.105 55.4756ZM91.7029 54.3817L91.9337 54.838C92.036 55.0349 92.0895 55.2536 92.0897 55.4756V67.8209H103.005V55.4756C103.006 55.2536 103.059 55.0349 103.161 54.838L103.392 54.3817H91.7029ZM102.382 55.4756V67.1958H92.7134V55.4756C92.7136 55.3177 92.6947 55.1602 92.6572 55.0068H102.438C102.4 55.1602 102.382 55.3177 102.382 55.4756ZM201.485 54.3817L201.716 54.838C201.818 55.0349 201.872 55.2536 201.872 55.4756V67.8209H212.788V55.4756C212.788 55.2536 212.841 55.0349 212.944 54.838L213.174 54.3817H201.485ZM212.164 55.4756V67.1958H202.496V55.4756C202.496 55.3177 202.477 55.1602 202.439 55.0068H212.22C212.183 55.1602 212.164 55.3177 212.164 55.4756ZM187.993 54.838C188.095 55.0349 188.149 55.2536 188.149 55.4756V67.8209H199.065V55.4756C199.065 55.2536 199.119 55.0349 199.221 54.838L199.452 54.3817H187.762L187.993 54.838ZM198.497 55.0068C198.46 55.1602 198.441 55.3177 198.441 55.4756V67.1958H188.773V55.4756C188.773 55.3177 188.754 55.1602 188.717 55.0068H198.497ZM174.27 54.838C174.373 55.0349 174.426 55.2536 174.426 55.4756V67.8209H185.342V55.4756C185.342 55.2536 185.396 55.0349 185.498 54.838L185.729 54.3817H174.039L174.27 54.838ZM184.775 55.0068C184.737 55.1602 184.718 55.3177 184.718 55.4756V67.1958H175.05V55.4756C175.05 55.3177 175.031 55.1602 174.994 55.0068H184.775ZM160.548 54.838C160.65 55.0349 160.703 55.2536 160.704 55.4756V67.8209H171.619V55.4756C171.619 55.2536 171.673 55.0349 171.775 54.838L172.006 54.3817H160.317L160.548 54.838ZM171.052 55.0068C171.014 55.1602 170.995 55.3177 170.996 55.4756V67.1958H161.327V55.4756C161.327 55.3177 161.309 55.1602 161.271 55.0068H171.052ZM146.825 54.838C146.927 55.0349 146.981 55.2536 146.981 55.4756V67.8209H157.897V55.4756C157.897 55.2536 157.95 55.0349 158.053 54.838L158.283 54.3817H146.594L146.825 54.838ZM157.329 55.0068C157.292 55.1602 157.273 55.3177 157.273 55.4756V67.1958H147.605V55.4756C147.605 55.3177 147.586 55.1602 147.548 55.0068H157.329ZM133.102 54.838C133.204 55.0349 133.258 55.2536 133.258 55.4756V67.8209H144.174V55.4756C144.174 55.2536 144.227 55.0349 144.33 54.838L144.561 54.3817H132.871L133.102 54.838ZM143.606 55.0068C143.569 55.1602 143.55 55.3177 143.55 55.4756V67.1958H133.882V55.4756C133.882 55.3177 133.863 55.1602 133.826 55.0068H143.606ZM119.379 54.838C119.482 55.0349 119.535 55.2536 119.535 55.4756V67.8209H130.451V55.4756C130.451 55.2536 130.505 55.0349 130.607 54.838L130.838 54.3817H119.148L119.379 54.838ZM129.883 55.0068C129.846 55.1602 129.827 55.3177 129.827 55.4756V67.1958H120.159V55.4756C120.159 55.3177 120.14 55.1602 120.103 55.0068H129.883ZM105.656 54.838C105.759 55.0349 105.812 55.2536 105.812 55.4756V67.8209H116.728V55.4756C116.728 55.2536 116.782 55.0349 116.884 54.838L117.115 54.3817H105.426L105.656 54.838ZM116.161 55.0068C116.123 55.1602 116.104 55.3177 116.105 55.4756V67.1958H106.436V55.4756C106.436 55.3177 106.418 55.1602 106.38 55.0068H116.161ZM91.9337 54.838C92.036 55.0349 92.0895 55.2536 92.0897 55.4756V67.8209H103.005V55.4756C103.006 55.2536 103.059 55.0349 103.161 54.838L103.392 54.3817H91.7029L91.9337 54.838ZM102.438 55.0068C102.4 55.1602 102.382 55.3177 102.382 55.4756V67.1958H92.7134V55.4756C92.7136 55.3177 92.6947 55.1602 92.6572 55.0068H102.438ZM201.716 54.838C201.818 55.0349 201.872 55.2536 201.872 55.4756V67.8209H212.788V55.4756C212.788 55.2536 212.841 55.0349 212.944 54.838L213.174 54.3817H201.485L201.716 54.838ZM212.22 55.0068C212.183 55.1602 212.164 55.3177 212.164 55.4756V67.1958H202.496V55.4756C202.496 55.3177 202.477 55.1602 202.439 55.0068H212.22ZM187.993 54.838C188.095 55.0349 188.149 55.2536 188.149 55.4756V67.8209H199.065V55.4756C199.065 55.2536 199.119 55.0349 199.221 54.838L199.452 54.3817H187.762L187.993 54.838ZM198.497 55.0068C198.46 55.1602 198.441 55.3177 198.441 55.4756V67.1958H188.773V55.4756C188.773 55.3177 188.754 55.1602 188.717 55.0068H198.497ZM174.27 54.838C174.373 55.0349 174.426 55.2536 174.426 55.4756V67.8209H185.342V55.4756C185.342 55.2536 185.396 55.0349 185.498 54.838L185.729 54.3817H174.039L174.27 54.838ZM184.775 55.0068C184.737 55.1602 184.718 55.3177 184.718 55.4756V67.1958H175.05V55.4756C175.05 55.3177 175.031 55.1602 174.994 55.0068H184.775ZM160.548 54.838C160.65 55.0349 160.703 55.2536 160.704 55.4756V67.8209H171.619V55.4756C171.619 55.2536 171.673 55.0349 171.775 54.838L172.006 54.3817H160.317L160.548 54.838ZM171.052 55.0068C171.014 55.1602 170.995 55.3177 170.996 55.4756V67.1958H161.327V55.4756C161.327 55.3177 161.309 55.1602 161.271 55.0068H171.052ZM146.825 54.838C146.927 55.0349 146.981 55.2536 146.981 55.4756V67.8209H157.897V55.4756C157.897 55.2536 157.95 55.0349 158.053 54.838L158.283 54.3817H146.594L146.825 54.838ZM157.329 55.0068C157.292 55.1602 157.273 55.3177 157.273 55.4756V67.1958H147.605V55.4756C147.605 55.3177 147.586 55.1602 147.548 55.0068H157.329ZM133.102 54.838C133.204 55.0349 133.258 55.2536 133.258 55.4756V67.8209H144.174V55.4756C144.174 55.2536 144.227 55.0349 144.33 54.838L144.561 54.3817H132.871L133.102 54.838ZM143.606 55.0068C143.569 55.1602 143.55 55.3177 143.55 55.4756V67.1958H133.882V55.4756C133.882 55.3177 133.863 55.1602 133.826 55.0068H143.606ZM119.379 54.838C119.482 55.0349 119.535 55.2536 119.535 55.4756V67.8209H130.451V55.4756C130.451 55.2536 130.505 55.0349 130.607 54.838L130.838 54.3817H119.148L119.379 54.838ZM129.883 55.0068C129.846 55.1602 129.827 55.3177 129.827 55.4756V67.1958H120.159V55.4756C120.159 55.3177 120.14 55.1602 120.103 55.0068H129.883ZM105.656 54.838C105.759 55.0349 105.812 55.2536 105.812 55.4756V67.8209H116.728V55.4756C116.728 55.2536 116.782 55.0349 116.884 54.838L117.115 54.3817H105.426L105.656 54.838ZM116.161 55.0068C116.123 55.1602 116.104 55.3177 116.105 55.4756V67.1958H106.436V55.4756C106.436 55.3177 106.418 55.1602 106.38 55.0068H116.161ZM91.9337 54.838C92.036 55.0349 92.0895 55.2536 92.0897 55.4756V67.8209H103.005V55.4756C103.006 55.2536 103.059 55.0349 103.161 54.838L103.392 54.3817H91.7029L91.9337 54.838ZM102.438 55.0068C102.4 55.1602 102.382 55.3177 102.382 55.4756V67.1958H92.7134V55.4756C92.7136 55.3177 92.6947 55.1602 92.6572 55.0068H102.438ZM225.263 69.6961H221.545C221.34 68.9772 220.908 68.3445 220.312 67.8935C219.717 67.4425 218.992 67.1976 218.246 67.1958H216.218V55.4756C216.219 55.224 216.171 54.9746 216.078 54.7412C216.431 54.5326 216.706 54.2133 216.861 53.8326C217.015 53.4518 217.04 53.0307 216.932 52.6343C216.824 52.2379 216.588 51.8882 216.262 51.6392C215.936 51.3901 215.537 51.2556 215.127 51.2564H89.7506C89.3404 51.2556 88.9415 51.3901 88.6153 51.6392C88.289 51.8882 88.0537 52.2379 87.9455 52.6343C87.8373 53.0307 87.8623 53.4518 88.0166 53.8326C88.1709 54.2133 88.446 54.5326 88.7994 54.7412C88.7058 54.9746 88.6581 55.224 88.659 55.4756V67.1958H86.6317C85.8856 67.1976 85.1602 67.4425 84.565 67.8935C83.9698 68.3445 83.5371 68.9772 83.332 69.6961H79.3025C78.5584 69.6973 77.8451 69.994 77.319 70.5213C76.7928 71.0485 76.4967 71.7633 76.4956 72.509V237.53C76.4972 238.275 76.7935 238.99 77.3195 239.517C77.8456 240.044 78.5586 240.341 79.3025 240.342H225.263C226.007 240.341 226.72 240.045 227.246 239.517C227.773 238.99 228.069 238.275 228.07 237.53V72.509C228.069 71.7633 227.773 71.0485 227.246 70.5213C226.72 69.994 226.007 69.6973 225.263 69.6961ZM227.446 237.53C227.446 237.976 227.309 238.412 227.054 238.778C226.799 239.145 226.439 239.425 226.021 239.58C225.779 239.672 225.522 239.719 225.263 239.717H79.3025C79.0436 239.719 78.7866 239.672 78.5446 239.58C78.1267 239.425 77.7662 239.145 77.5115 238.778C77.2567 238.412 77.1199 237.976 77.1194 237.53V72.509C77.12 71.929 77.3502 71.3729 77.7595 70.9627C78.1688 70.5526 78.7237 70.3219 79.3025 70.3212H83.8311L83.881 70.0712C84.0121 69.4367 84.3571 68.8668 84.858 68.457C85.3589 68.0473 85.9852 67.8227 86.6317 67.8209H89.2827V55.4756C89.2828 55.2213 89.3518 54.9718 89.4824 54.7537L89.6756 54.4317L89.3232 54.3005C89.0478 54.2004 88.8165 54.0062 88.6699 53.752C88.5234 53.4979 88.471 53.2 88.5221 52.9109C88.5731 52.6219 88.7243 52.3601 88.9491 52.1718C89.1738 51.9835 89.4576 51.8806 89.7506 51.8814H215.127C215.42 51.8806 215.704 51.9835 215.928 52.1718C216.153 52.3601 216.304 52.6219 216.355 52.9109C216.406 53.2 216.354 53.4979 216.207 53.752C216.061 54.0062 215.829 54.2004 215.554 54.3005L215.202 54.4317L215.395 54.7537C215.526 54.9717 215.595 55.2213 215.595 55.4756V67.8209H218.246C218.892 67.8226 219.518 68.0472 220.019 68.457C220.52 68.8667 220.865 69.4367 220.996 70.0712L221.046 70.3212H225.263C225.842 70.3219 226.397 70.5526 226.806 70.9627C227.215 71.3729 227.445 71.929 227.446 72.509L227.446 237.53ZM91.7029 54.3817L91.9337 54.838C92.036 55.0349 92.0895 55.2536 92.0897 55.4756V67.8209H103.005V55.4756C103.006 55.2536 103.059 55.0349 103.161 54.838L103.392 54.3817H91.7029ZM102.382 55.4756V67.1958H92.7134V55.4756C92.7136 55.3177 92.6947 55.1602 92.6572 55.0068H102.438C102.4 55.1602 102.382 55.3177 102.382 55.4756ZM105.426 54.3817L105.656 54.838C105.759 55.0349 105.812 55.2536 105.812 55.4756V67.8209H116.728V55.4756C116.728 55.2536 116.782 55.0349 116.884 54.838L117.115 54.3817H105.426ZM116.105 55.4756V67.1958H106.436V55.4756C106.436 55.3177 106.418 55.1602 106.38 55.0068H116.161C116.123 55.1602 116.104 55.3177 116.105 55.4756ZM119.148 54.3817L119.379 54.838C119.482 55.0349 119.535 55.2536 119.535 55.4756V67.8209H130.451V55.4756C130.451 55.2536 130.505 55.0349 130.607 54.838L130.838 54.3817H119.148ZM129.827 55.4756V67.1958H120.159V55.4756C120.159 55.3177 120.14 55.1602 120.103 55.0068H129.883C129.846 55.1602 129.827 55.3177 129.827 55.4756ZM132.871 54.3817L133.102 54.838C133.204 55.0349 133.258 55.2536 133.258 55.4756V67.8209H144.174V55.4756C144.174 55.2536 144.227 55.0349 144.33 54.838L144.561 54.3817H132.871ZM143.55 55.4756V67.1958H133.882V55.4756C133.882 55.3177 133.863 55.1602 133.826 55.0068H143.606C143.569 55.1602 143.55 55.3177 143.55 55.4756ZM146.594 54.3817L146.825 54.838C146.927 55.0349 146.981 55.2536 146.981 55.4756V67.8209H157.897V55.4756C157.897 55.2536 157.95 55.0349 158.053 54.838L158.283 54.3817H146.594ZM157.273 55.4756V67.1958H147.605V55.4756C147.605 55.3177 147.586 55.1602 147.548 55.0068H157.329C157.292 55.1602 157.273 55.3177 157.273 55.4756ZM160.317 54.3817L160.548 54.838C160.65 55.0349 160.703 55.2536 160.704 55.4756V67.8209H171.619V55.4756C171.619 55.2536 171.673 55.0349 171.775 54.838L172.006 54.3817H160.317ZM170.996 55.4756V67.1958H161.327V55.4756C161.327 55.3177 161.309 55.1602 161.271 55.0068H171.052C171.014 55.1602 170.995 55.3177 170.996 55.4756ZM174.039 54.3817L174.27 54.838C174.373 55.0349 174.426 55.2536 174.426 55.4756V67.8209H185.342V55.4756C185.342 55.2536 185.396 55.0349 185.498 54.838L185.729 54.3817H174.039ZM184.718 55.4756V67.1958H175.05V55.4756C175.05 55.3177 175.031 55.1602 174.994 55.0068H184.775C184.737 55.1602 184.718 55.3177 184.718 55.4756ZM187.762 54.3817L187.993 54.838C188.095 55.0349 188.149 55.2536 188.149 55.4756V67.8209H199.065V55.4756C199.065 55.2536 199.119 55.0349 199.221 54.838L199.452 54.3817H187.762ZM198.441 55.4756V67.1958H188.773V55.4756C188.773 55.3177 188.754 55.1602 188.717 55.0068H198.497C198.46 55.1602 198.441 55.3177 198.441 55.4756ZM201.485 54.3817L201.716 54.838C201.818 55.0349 201.872 55.2536 201.872 55.4756V67.8209H212.788V55.4756C212.788 55.2536 212.841 55.0349 212.944 54.838L213.174 54.3817H201.485ZM212.164 55.4756V67.1958H202.496V55.4756C202.496 55.3177 202.477 55.1602 202.439 55.0068H212.22C212.183 55.1602 212.164 55.3177 212.164 55.4756ZM91.7029 54.3817L91.9337 54.838C92.036 55.0349 92.0895 55.2536 92.0897 55.4756V67.8209H103.005V55.4756C103.006 55.2536 103.059 55.0349 103.161 54.838L103.392 54.3817H91.7029ZM102.382 55.4756V67.1958H92.7134V55.4756C92.7136 55.3177 92.6947 55.1602 92.6572 55.0068H102.438C102.4 55.1602 102.382 55.3177 102.382 55.4756ZM105.426 54.3817L105.656 54.838C105.759 55.0349 105.812 55.2536 105.812 55.4756V67.8209H116.728V55.4756C116.728 55.2536 116.782 55.0349 116.884 54.838L117.115 54.3817H105.426ZM116.105 55.4756V67.1958H106.436V55.4756C106.436 55.3177 106.418 55.1602 106.38 55.0068H116.161C116.123 55.1602 116.104 55.3177 116.105 55.4756ZM119.148 54.3817L119.379 54.838C119.482 55.0349 119.535 55.2536 119.535 55.4756V67.8209H130.451V55.4756C130.451 55.2536 130.505 55.0349 130.607 54.838L130.838 54.3817H119.148ZM129.827 55.4756V67.1958H120.159V55.4756C120.159 55.3177 120.14 55.1602 120.103 55.0068H129.883C129.846 55.1602 129.827 55.3177 129.827 55.4756ZM132.871 54.3817L133.102 54.838C133.204 55.0349 133.258 55.2536 133.258 55.4756V67.8209H144.174V55.4756C144.174 55.2536 144.227 55.0349 144.33 54.838L144.561 54.3817H132.871ZM143.55 55.4756V67.1958H133.882V55.4756C133.882 55.3177 133.863 55.1602 133.826 55.0068H143.606C143.569 55.1602 143.55 55.3177 143.55 55.4756ZM146.594 54.3817L146.825 54.838C146.927 55.0349 146.981 55.2536 146.981 55.4756V67.8209H157.897V55.4756C157.897 55.2536 157.95 55.0349 158.053 54.838L158.283 54.3817H146.594ZM157.273 55.4756V67.1958H147.605V55.4756C147.605 55.3177 147.586 55.1602 147.548 55.0068H157.329C157.292 55.1602 157.273 55.3177 157.273 55.4756ZM160.317 54.3817L160.548 54.838C160.65 55.0349 160.703 55.2536 160.704 55.4756V67.8209H171.619V55.4756C171.619 55.2536 171.673 55.0349 171.775 54.838L172.006 54.3817H160.317ZM170.996 55.4756V67.1958H161.327V55.4756C161.327 55.3177 161.309 55.1602 161.271 55.0068H171.052C171.014 55.1602 170.995 55.3177 170.996 55.4756ZM174.039 54.3817L174.27 54.838C174.373 55.0349 174.426 55.2536 174.426 55.4756V67.8209H185.342V55.4756C185.342 55.2536 185.396 55.0349 185.498 54.838L185.729 54.3817H174.039ZM184.718 55.4756V67.1958H175.05V55.4756C175.05 55.3177 175.031 55.1602 174.994 55.0068H184.775C184.737 55.1602 184.718 55.3177 184.718 55.4756ZM187.762 54.3817L187.993 54.838C188.095 55.0349 188.149 55.2536 188.149 55.4756V67.8209H199.065V55.4756C199.065 55.2536 199.119 55.0349 199.221 54.838L199.452 54.3817H187.762ZM198.441 55.4756V67.1958H188.773V55.4756C188.773 55.3177 188.754 55.1602 188.717 55.0068H198.497C198.46 55.1602 198.441 55.3177 198.441 55.4756ZM201.485 54.3817L201.716 54.838C201.818 55.0349 201.872 55.2536 201.872 55.4756V67.8209H212.788V55.4756C212.788 55.2536 212.841 55.0349 212.944 54.838L213.174 54.3817H201.485ZM212.164 55.4756V67.1958H202.496V55.4756C202.496 55.3177 202.477 55.1602 202.439 55.0068H212.22C212.183 55.1602 212.164 55.3177 212.164 55.4756ZM91.7029 54.3817L91.9337 54.838C92.036 55.0349 92.0895 55.2536 92.0897 55.4756V67.8209H103.005V55.4756C103.006 55.2536 103.059 55.0349 103.161 54.838L103.392 54.3817H91.7029ZM102.382 55.4756V67.1958H92.7134V55.4756C92.7136 55.3177 92.6947 55.1602 92.6572 55.0068H102.438C102.4 55.1602 102.382 55.3177 102.382 55.4756ZM105.426 54.3817L105.656 54.838C105.759 55.0349 105.812 55.2536 105.812 55.4756V67.8209H116.728V55.4756C116.728 55.2536 116.782 55.0349 116.884 54.838L117.115 54.3817H105.426ZM116.105 55.4756V67.1958H106.436V55.4756C106.436 55.3177 106.418 55.1602 106.38 55.0068H116.161C116.123 55.1602 116.104 55.3177 116.105 55.4756ZM119.148 54.3817L119.379 54.838C119.482 55.0349 119.535 55.2536 119.535 55.4756V67.8209H130.451V55.4756C130.451 55.2536 130.505 55.0349 130.607 54.838L130.838 54.3817H119.148ZM129.827 55.4756V67.1958H120.159V55.4756C120.159 55.3177 120.14 55.1602 120.103 55.0068H129.883C129.846 55.1602 129.827 55.3177 129.827 55.4756ZM132.871 54.3817L133.102 54.838C133.204 55.0349 133.258 55.2536 133.258 55.4756V67.8209H144.174V55.4756C144.174 55.2536 144.227 55.0349 144.33 54.838L144.561 54.3817H132.871ZM143.55 55.4756V67.1958H133.882V55.4756C133.882 55.3177 133.863 55.1602 133.826 55.0068H143.606C143.569 55.1602 143.55 55.3177 143.55 55.4756ZM146.594 54.3817L146.825 54.838C146.927 55.0349 146.981 55.2536 146.981 55.4756V67.8209H157.897V55.4756C157.897 55.2536 157.95 55.0349 158.053 54.838L158.283 54.3817H146.594ZM157.273 55.4756V67.1958H147.605V55.4756C147.605 55.3177 147.586 55.1602 147.548 55.0068H157.329C157.292 55.1602 157.273 55.3177 157.273 55.4756ZM160.317 54.3817L160.548 54.838C160.65 55.0349 160.703 55.2536 160.704 55.4756V67.8209H171.619V55.4756C171.619 55.2536 171.673 55.0349 171.775 54.838L172.006 54.3817H160.317ZM170.996 55.4756V67.1958H161.327V55.4756C161.327 55.3177 161.309 55.1602 161.271 55.0068H171.052C171.014 55.1602 170.995 55.3177 170.996 55.4756ZM174.039 54.3817L174.27 54.838C174.373 55.0349 174.426 55.2536 174.426 55.4756V67.8209H185.342V55.4756C185.342 55.2536 185.396 55.0349 185.498 54.838L185.729 54.3817H174.039ZM184.718 55.4756V67.1958H175.05V55.4756C175.05 55.3177 175.031 55.1602 174.994 55.0068H184.775C184.737 55.1602 184.718 55.3177 184.718 55.4756ZM187.762 54.3817L187.993 54.838C188.095 55.0349 188.149 55.2536 188.149 55.4756V67.8209H199.065V55.4756C199.065 55.2536 199.119 55.0349 199.221 54.838L199.452 54.3817H187.762ZM198.441 55.4756V67.1958H188.773V55.4756C188.773 55.3177 188.754 55.1602 188.717 55.0068H198.497C198.46 55.1602 198.441 55.3177 198.441 55.4756ZM201.485 54.3817L201.716 54.838C201.818 55.0349 201.872 55.2536 201.872 55.4756V67.8209H212.788V55.4756C212.788 55.2536 212.841 55.0349 212.944 54.838L213.174 54.3817H201.485ZM212.164 55.4756V67.1958H202.496V55.4756C202.496 55.3177 202.477 55.1602 202.439 55.0068H212.22C212.183 55.1602 212.164 55.3177 212.164 55.4756ZM91.7029 54.3817L91.9337 54.838C92.036 55.0349 92.0895 55.2536 92.0897 55.4756V67.8209H103.005V55.4756C103.006 55.2536 103.059 55.0349 103.161 54.838L103.392 54.3817H91.7029ZM102.382 55.4756V67.1958H92.7134V55.4756C92.7136 55.3177 92.6947 55.1602 92.6572 55.0068H102.438C102.4 55.1602 102.382 55.3177 102.382 55.4756ZM105.426 54.3817L105.656 54.838C105.759 55.0349 105.812 55.2536 105.812 55.4756V67.8209H116.728V55.4756C116.728 55.2536 116.782 55.0349 116.884 54.838L117.115 54.3817H105.426ZM116.105 55.4756V67.1958H106.436V55.4756C106.436 55.3177 106.418 55.1602 106.38 55.0068H116.161C116.123 55.1602 116.104 55.3177 116.105 55.4756ZM119.148 54.3817L119.379 54.838C119.482 55.0349 119.535 55.2536 119.535 55.4756V67.8209H130.451V55.4756C130.451 55.2536 130.505 55.0349 130.607 54.838L130.838 54.3817H119.148ZM129.827 55.4756V67.1958H120.159V55.4756C120.159 55.3177 120.14 55.1602 120.103 55.0068H129.883C129.846 55.1602 129.827 55.3177 129.827 55.4756ZM132.871 54.3817L133.102 54.838C133.204 55.0349 133.258 55.2536 133.258 55.4756V67.8209H144.174V55.4756C144.174 55.2536 144.227 55.0349 144.33 54.838L144.561 54.3817H132.871ZM143.55 55.4756V67.1958H133.882V55.4756C133.882 55.3177 133.863 55.1602 133.826 55.0068H143.606C143.569 55.1602 143.55 55.3177 143.55 55.4756ZM146.594 54.3817L146.825 54.838C146.927 55.0349 146.981 55.2536 146.981 55.4756V67.8209H157.897V55.4756C157.897 55.2536 157.95 55.0349 158.053 54.838L158.283 54.3817H146.594ZM157.273 55.4756V67.1958H147.605V55.4756C147.605 55.3177 147.586 55.1602 147.548 55.0068H157.329C157.292 55.1602 157.273 55.3177 157.273 55.4756ZM160.317 54.3817L160.548 54.838C160.65 55.0349 160.703 55.2536 160.704 55.4756V67.8209H171.619V55.4756C171.619 55.2536 171.673 55.0349 171.775 54.838L172.006 54.3817H160.317ZM170.996 55.4756V67.1958H161.327V55.4756C161.327 55.3177 161.309 55.1602 161.271 55.0068H171.052C171.014 55.1602 170.995 55.3177 170.996 55.4756ZM174.039 54.3817L174.27 54.838C174.373 55.0349 174.426 55.2536 174.426 55.4756V67.8209H185.342V55.4756C185.342 55.2536 185.396 55.0349 185.498 54.838L185.729 54.3817H174.039ZM184.718 55.4756V67.1958H175.05V55.4756C175.05 55.3177 175.031 55.1602 174.994 55.0068H184.775C184.737 55.1602 184.718 55.3177 184.718 55.4756ZM187.762 54.3817L187.993 54.838C188.095 55.0349 188.149 55.2536 188.149 55.4756V67.8209H199.065V55.4756C199.065 55.2536 199.119 55.0349 199.221 54.838L199.452 54.3817H187.762ZM198.441 55.4756V67.1958H188.773V55.4756C188.773 55.3177 188.754 55.1602 188.717 55.0068H198.497C198.46 55.1602 198.441 55.3177 198.441 55.4756ZM201.485 54.3817L201.716 54.838C201.818 55.0349 201.872 55.2536 201.872 55.4756V67.8209H212.788V55.4756C212.788 55.2536 212.841 55.0349 212.944 54.838L213.174 54.3817H201.485ZM212.164 55.4756V67.1958H202.496V55.4756C202.496 55.3177 202.477 55.1602 202.439 55.0068H212.22C212.183 55.1602 212.164 55.3177 212.164 55.4756Z" fill="#3F3D56"/>
<path d="M128.783 109.076H105.784C105.3 109.076 104.835 108.883 104.493 108.539C104.15 108.196 103.958 107.731 103.957 107.245V94.9676C103.958 94.4822 104.15 94.0168 104.493 93.6736C104.835 93.3303 105.3 93.1373 105.784 93.1367H128.783C129.268 93.1373 129.732 93.3303 130.074 93.6736C130.417 94.0168 130.61 94.4822 130.61 94.9676V107.245C130.61 107.731 130.417 108.196 130.074 108.539C129.732 108.883 129.268 109.076 128.783 109.076Z" fill="#6C63FF"/>
<path d="M163.782 109.076H140.783C140.299 109.076 139.834 108.883 139.492 108.539C139.149 108.196 138.957 107.731 138.956 107.245V94.9676C138.957 94.4822 139.149 94.0168 139.492 93.6736C139.834 93.3303 140.299 93.1373 140.783 93.1367H163.782C164.267 93.1373 164.731 93.3303 165.074 93.6736C165.416 94.0168 165.609 94.4822 165.609 94.9676V107.245C165.609 107.731 165.416 108.196 165.074 108.539C164.731 108.883 164.267 109.076 163.782 109.076Z" fill="#6C63FF"/>
<path d="M198.781 109.076H175.782C175.298 109.076 174.833 108.883 174.491 108.539C174.148 108.196 173.956 107.731 173.955 107.245V94.9676C173.956 94.4822 174.148 94.0168 174.491 93.6736C174.833 93.3303 175.298 93.1373 175.782 93.1367H198.781C199.266 93.1373 199.73 93.3303 200.073 93.6736C200.415 94.0168 200.608 94.4822 200.608 94.9676V107.245C200.608 107.731 200.415 108.196 200.073 108.539C199.73 108.883 199.266 109.076 198.781 109.076Z" fill="#6C63FF"/>
<path d="M128.783 150.019H105.784C105.3 150.018 104.835 149.825 104.493 149.482C104.15 149.139 103.958 148.673 103.957 148.188V135.91C103.958 135.425 104.15 134.959 104.493 134.616C104.835 134.273 105.3 134.08 105.784 134.079H128.783C129.268 134.08 129.732 134.273 130.074 134.616C130.417 134.959 130.61 135.425 130.61 135.91V148.188C130.61 148.673 130.417 149.139 130.074 149.482C129.732 149.825 129.268 150.018 128.783 150.019Z" fill="#6C63FF"/>
<path d="M163.782 150.019H140.783C140.299 150.018 139.834 149.825 139.492 149.482C139.149 149.139 138.957 148.673 138.956 148.188V135.91C138.957 135.425 139.149 134.959 139.492 134.616C139.834 134.273 140.299 134.08 140.783 134.079H163.782C164.267 134.08 164.731 134.273 165.074 134.616C165.416 134.959 165.609 135.425 165.609 135.91V148.188C165.609 148.673 165.416 149.139 165.074 149.482C164.731 149.825 164.267 150.018 163.782 150.019Z" fill="#6C63FF"/>
<path d="M198.781 150.019H175.782C175.298 150.018 174.833 149.825 174.491 149.482C174.148 149.139 173.956 148.673 173.955 148.188V135.91C173.956 135.425 174.148 134.959 174.491 134.616C174.833 134.273 175.298 134.08 175.782 134.079H198.781C199.266 134.08 199.73 134.273 200.073 134.616C200.415 134.959 200.608 135.425 200.608 135.91V148.188C200.608 148.673 200.415 149.139 200.073 149.482C199.73 149.825 199.266 150.018 198.781 150.019Z" fill="#6C63FF"/>
<path d="M128.783 190.961H105.784C105.3 190.961 104.835 190.768 104.493 190.425C104.15 190.081 103.958 189.616 103.957 189.131V176.853C103.958 176.367 104.15 175.902 104.493 175.559C104.835 175.216 105.3 175.023 105.784 175.022H128.783C129.268 175.023 129.732 175.216 130.074 175.559C130.417 175.902 130.61 176.367 130.61 176.853V189.131C130.61 189.616 130.417 190.081 130.074 190.425C129.732 190.768 129.268 190.961 128.783 190.961Z" fill="#6C63FF"/>
<path d="M163.782 190.961H140.783C140.299 190.961 139.834 190.768 139.492 190.425C139.149 190.081 138.957 189.616 138.956 189.131V176.853C138.957 176.367 139.149 175.902 139.492 175.559C139.834 175.216 140.299 175.023 140.783 175.022H163.782C164.267 175.023 164.731 175.216 165.074 175.559C165.416 175.902 165.609 176.367 165.609 176.853V189.131C165.609 189.616 165.416 190.081 165.074 190.425C164.731 190.768 164.267 190.961 163.782 190.961Z" fill="#6C63FF"/>
<path d="M198.781 190.961H175.782C175.298 190.961 174.833 190.768 174.491 190.425C174.148 190.081 173.956 189.616 173.955 189.131V176.853C173.956 176.367 174.148 175.902 174.491 175.559C174.833 175.216 175.298 175.023 175.782 175.022H198.781C199.266 175.023 199.73 175.216 200.073 175.559C200.415 175.902 200.608 176.367 200.608 176.853V189.131C200.608 189.616 200.415 190.081 200.073 190.425C199.73 190.768 199.266 190.961 198.781 190.961Z" fill="#6C63FF"/>
<path d="M125.06 110.651H98.4167C97.7728 110.65 97.1556 110.394 96.7003 109.938C96.2451 109.481 95.989 108.863 95.9883 108.218V93.9947C95.989 93.3495 96.2451 92.7309 96.7003 92.2747C97.1556 91.8184 97.7728 91.5618 98.4167 91.561H125.06C125.704 91.5618 126.321 91.8184 126.776 92.2747C127.231 92.7309 127.488 93.3495 127.488 93.9947V108.218C127.488 108.863 127.231 109.481 126.776 109.938C126.321 110.394 125.704 110.65 125.06 110.651ZM98.4167 92.1861C97.9382 92.1867 97.4795 92.3774 97.1412 92.7164C96.8029 93.0555 96.6126 93.5152 96.612 93.9947V108.218C96.6126 108.697 96.8029 109.157 97.1412 109.496C97.4795 109.835 97.9382 110.026 98.4167 110.026H125.06C125.538 110.026 125.997 109.835 126.335 109.496C126.674 109.157 126.864 108.697 126.865 108.218V93.9947C126.864 93.5152 126.674 93.0555 126.335 92.7164C125.997 92.3774 125.538 92.1867 125.06 92.1861H98.4167Z" fill="#3F3D56"/>
<path d="M165.604 110.651H138.961C138.317 110.65 137.7 110.394 137.245 109.938C136.79 109.481 136.533 108.863 136.533 108.218V93.9947C136.533 93.3495 136.79 92.7309 137.245 92.2747C137.7 91.8184 138.317 91.5618 138.961 91.561H165.604C166.248 91.5618 166.865 91.8184 167.321 92.2747C167.776 92.7309 168.032 93.3495 168.033 93.9947V108.218C168.032 108.863 167.776 109.481 167.321 109.938C166.865 110.394 166.248 110.65 165.604 110.651ZM138.961 92.1861C138.483 92.1867 138.024 92.3774 137.686 92.7164C137.347 93.0555 137.157 93.5152 137.156 93.9947V108.218C137.157 108.697 137.347 109.157 137.686 109.496C138.024 109.835 138.483 110.026 138.961 110.026H165.604C166.083 110.026 166.541 109.835 166.88 109.496C167.218 109.157 167.408 108.697 167.409 108.218V93.9947C167.408 93.5152 167.218 93.0555 166.88 92.7164C166.541 92.3774 166.083 92.1867 165.604 92.1861H138.961Z" fill="#3F3D56"/>
<path d="M206.149 110.651H179.506C178.862 110.65 178.244 110.394 177.789 109.938C177.334 109.481 177.078 108.863 177.077 108.218V93.9947C177.078 93.3495 177.334 92.7309 177.789 92.2747C178.244 91.8184 178.862 91.5618 179.506 91.561H206.149C206.793 91.5618 207.41 91.8184 207.865 92.2747C208.32 92.7309 208.576 93.3495 208.577 93.9947V108.218C208.576 108.863 208.32 109.481 207.865 109.938C207.41 110.394 206.793 110.65 206.149 110.651ZM179.506 92.1861C179.027 92.1867 178.568 92.3774 178.23 92.7164C177.892 93.0555 177.701 93.5152 177.701 93.9947V108.218C177.701 108.697 177.892 109.157 178.23 109.496C178.568 109.835 179.027 110.026 179.506 110.026H206.149C206.627 110.026 207.086 109.835 207.424 109.496C207.763 109.157 207.953 108.697 207.953 108.218V93.9947C207.953 93.5152 207.763 93.0555 207.424 92.7164C207.086 92.3774 206.627 92.1867 206.149 92.1861H179.506Z" fill="#3F3D56"/>
<path d="M125.06 151.594H98.4167C97.7728 151.593 97.1556 151.337 96.7003 150.88C96.2451 150.424 95.989 149.806 95.9883 149.16V134.938C95.989 134.292 96.2451 133.674 96.7003 133.218C97.1556 132.761 97.7728 132.505 98.4167 132.504H125.06C125.704 132.505 126.321 132.761 126.776 133.218C127.231 133.674 127.488 134.292 127.488 134.938V149.16C127.488 149.806 127.231 150.424 126.776 150.881C126.321 151.337 125.704 151.593 125.06 151.594ZM98.4167 133.129C97.9382 133.13 97.4795 133.32 97.1412 133.659C96.8029 133.998 96.6126 134.458 96.612 134.938V149.16C96.6126 149.64 96.8029 150.1 97.1412 150.439C97.4795 150.778 97.9382 150.968 98.4167 150.969H125.06C125.538 150.968 125.997 150.778 126.335 150.439C126.674 150.1 126.864 149.64 126.865 149.16V134.938C126.864 134.458 126.674 133.998 126.335 133.659C125.997 133.32 125.538 133.13 125.06 133.129H98.4167Z" fill="#3F3D56"/>
<path d="M165.604 151.594H138.961C138.317 151.593 137.7 151.337 137.245 150.881C136.79 150.424 136.533 149.806 136.533 149.16V134.938C136.533 134.292 136.79 133.674 137.245 133.218C137.7 132.761 138.317 132.505 138.961 132.504H165.604C166.248 132.505 166.865 132.761 167.321 133.218C167.776 133.674 168.032 134.292 168.033 134.938V149.16C168.032 149.806 167.776 150.424 167.321 150.88C166.865 151.337 166.248 151.593 165.604 151.594ZM138.961 133.129C138.483 133.13 138.024 133.32 137.686 133.659C137.347 133.998 137.157 134.458 137.156 134.938V149.16C137.157 149.64 137.347 150.1 137.686 150.439C138.024 150.778 138.483 150.968 138.961 150.969H165.604C166.083 150.968 166.541 150.778 166.88 150.439C167.218 150.1 167.408 149.64 167.409 149.16V134.938C167.408 134.458 167.218 133.998 166.88 133.659C166.541 133.32 166.083 133.13 165.604 133.129H138.961Z" fill="#3F3D56"/>
<path d="M206.149 151.594H179.506C178.862 151.593 178.244 151.337 177.789 150.881C177.334 150.424 177.078 149.806 177.077 149.16V134.938C177.078 134.292 177.334 133.674 177.789 133.218C178.244 132.761 178.862 132.505 179.506 132.504H206.149C206.793 132.505 207.41 132.761 207.865 133.218C208.32 133.674 208.576 134.292 208.577 134.938V149.16C208.576 149.806 208.32 150.424 207.865 150.88C207.41 151.337 206.793 151.593 206.149 151.594ZM179.506 133.129C179.027 133.13 178.568 133.32 178.23 133.659C177.892 133.998 177.701 134.458 177.701 134.938V149.16C177.701 149.64 177.892 150.1 178.23 150.439C178.568 150.778 179.027 150.968 179.506 150.969H206.149C206.627 150.968 207.086 150.778 207.424 150.439C207.763 150.1 207.953 149.64 207.953 149.16V134.938C207.953 134.458 207.763 133.998 207.424 133.659C207.086 133.32 206.627 133.13 206.149 133.129H179.506Z" fill="#3F3D56"/>
<path d="M125.06 192.536H98.4167C97.7728 192.536 97.1556 192.279 96.7003 191.823C96.2451 191.367 95.989 190.748 95.9883 190.103V175.88C95.989 175.235 96.2451 174.616 96.7003 174.16C97.1556 173.704 97.7728 173.447 98.4167 173.446H125.06C125.704 173.447 126.321 173.704 126.776 174.16C127.231 174.616 127.488 175.235 127.488 175.88V190.103C127.488 190.748 127.231 191.367 126.776 191.823C126.321 192.279 125.704 192.536 125.06 192.536ZM98.4167 174.071C97.9382 174.072 97.4795 174.263 97.1412 174.602C96.8029 174.941 96.6126 175.4 96.612 175.88V190.103C96.6126 190.582 96.8029 191.042 97.1412 191.381C97.4795 191.72 97.9382 191.911 98.4167 191.911H125.06C125.538 191.911 125.997 191.72 126.335 191.381C126.674 191.042 126.864 190.582 126.865 190.103V175.88C126.864 175.4 126.674 174.941 126.335 174.602C125.997 174.263 125.538 174.072 125.06 174.071H98.4167Z" fill="#3F3D56"/>
<path d="M165.604 192.536H138.961C138.317 192.536 137.7 192.279 137.245 191.823C136.79 191.367 136.533 190.748 136.533 190.103V175.88C136.533 175.235 136.79 174.616 137.245 174.16C137.7 173.704 138.317 173.447 138.961 173.446H165.604C166.248 173.447 166.865 173.704 167.321 174.16C167.776 174.616 168.032 175.235 168.033 175.88V190.103C168.032 190.748 167.776 191.367 167.321 191.823C166.865 192.279 166.248 192.536 165.604 192.536ZM138.961 174.071C138.483 174.072 138.024 174.263 137.686 174.602C137.347 174.941 137.157 175.4 137.156 175.88V190.103C137.157 190.582 137.347 191.042 137.686 191.381C138.024 191.72 138.483 191.911 138.961 191.911H165.604C166.083 191.911 166.541 191.72 166.88 191.381C167.218 191.042 167.408 190.582 167.409 190.103V175.88C167.408 175.4 167.218 174.941 166.88 174.602C166.541 174.263 166.083 174.072 165.604 174.071H138.961Z" fill="#3F3D56"/>
<path d="M206.149 192.536H179.506C178.862 192.536 178.244 192.279 177.789 191.823C177.334 191.367 177.078 190.748 177.077 190.103V175.88C177.078 175.235 177.334 174.616 177.789 174.16C178.244 173.704 178.862 173.447 179.506 173.446H206.149C206.793 173.447 207.41 173.704 207.865 174.16C208.32 174.616 208.576 175.235 208.577 175.88V190.103C208.576 190.748 208.32 191.367 207.865 191.823C207.41 192.279 206.793 192.536 206.149 192.536ZM179.506 174.071C179.027 174.072 178.568 174.263 178.23 174.602C177.892 174.941 177.701 175.4 177.701 175.88V190.103C177.701 190.582 177.892 191.042 178.23 191.381C178.568 191.72 179.027 191.911 179.506 191.911H206.149C206.627 191.911 207.086 191.72 207.424 191.381C207.763 191.042 207.953 190.582 207.953 190.103V175.88C207.953 175.4 207.763 174.941 207.424 174.602C207.086 174.263 206.627 174.072 206.149 174.071H179.506Z" fill="#3F3D56"/>
<path d="M314.688 240.811H0.311881C0.229165 240.811 0.149837 240.778 0.0913476 240.72C0.0328586 240.661 0 240.581 0 240.499C0 240.416 0.0328586 240.336 0.0913476 240.278C0.149837 240.219 0.229165 240.186 0.311881 240.186H314.688C314.771 240.186 314.85 240.219 314.909 240.278C314.967 240.336 315 240.416 315 240.499C315 240.581 314.967 240.661 314.909 240.72C314.85 240.778 314.771 240.811 314.688 240.811Z" fill="#3F3D56"/>
<path d="M168.033 210.561C168.041 209.847 167.767 209.16 167.27 208.649C166.773 208.139 166.093 207.847 165.382 207.838H152.283V240.186H168.033V210.561Z" fill="#3F3D56"/>
<path d="M152.594 239.874H136.221V210.651C136.222 209.864 136.534 209.109 137.089 208.553C137.645 207.996 138.398 207.683 139.184 207.682H152.594V239.874ZM136.844 239.249H151.971V208.307H139.184C138.563 208.308 137.969 208.555 137.53 208.995C137.092 209.434 136.845 210.03 136.844 210.651V239.249Z" fill="#3F3D56"/>
<path d="M138.248 225.966C138.765 225.966 139.184 225.546 139.184 225.028C139.184 224.51 138.765 224.09 138.248 224.09C137.731 224.09 137.312 224.51 137.312 225.028C137.312 225.546 137.731 225.966 138.248 225.966Z" fill="#3F3D56"/>
</g>
<defs>
<clipPath id="clip0">
<rect width="315" height="240.831" fill="white"/>
</clipPath>
</defs>
</svg>
